<svg width="20" height="20" viewBox="0 0 20 20" fill="none" xmlns="http://www.w3.org/2000/svg">
<g id="famicons:airplane-outline">
<path id="Vector" d="M12.8621 5.60781C12.7808 5.68909 12.5109 5.96378 12.439 6.0453L10.928 7.6375C10.9205 7.64606 10.9107 7.65235 10.8997 7.65568C10.8888 7.65902 10.8772 7.65926 10.8661 7.65638L4.002 6.98795C3.95834 6.98186 3.91387 6.98534 3.87169 6.99814C3.8295 7.01093 3.7906 7.03274 3.75767 7.06206L3.11482 7.70491L8.70901 9.80871C8.72198 9.81336 8.73353 9.8213 8.7425 9.83176C8.75148 9.84222 8.75758 9.85483 8.76021 9.86836C8.76284 9.88188 8.7619 9.89586 8.75749 9.90892C8.75309 9.92198 8.74536 9.93366 8.73507 9.94283L5.86888 12.8951C5.83953 12.9263 5.80323 12.9501 5.76294 12.9646C5.72265 12.9792 5.6795 12.984 5.63699 12.9788L3.67663 12.7875C3.51167 12.766 3.32711 12.8501 3.21021 12.967L2.75933 13.4179C2.72849 13.4488 2.76196 13.4731 2.79949 13.4939L4.98122 14.7271C5.10852 14.7826 5.21013 14.8843 5.26571 15.0115L6.49309 17.1885C6.5256 17.2492 6.55238 17.2727 6.60713 17.2179L7.03554 16.7895C7.23014 16.5949 7.23133 16.543 7.20551 16.3183L7.01426 14.3245C7.00935 14.282 7.01435 14.2389 7.02886 14.1987C7.04338 14.1585 7.06702 14.1221 7.09793 14.0926L10.0476 11.272C10.0583 11.2618 10.0714 11.2543 10.0857 11.2502C10.1 11.2462 10.115 11.2457 10.1296 11.2488C10.1441 11.2518 10.1577 11.2584 10.1691 11.2679C10.1805 11.2775 10.1894 11.2896 10.1951 11.3034L12.295 16.8851L12.9319 16.2482C12.9612 16.2154 12.9829 16.1766 12.9957 16.1345C13.0085 16.0924 13.012 16.048 13.006 16.0044L12.3462 9.13597C12.3412 9.11231 12.3725 9.06665 12.389 9.05015L13.9573 7.56315C14.0409 7.48903 14.3132 7.22152 14.3948 7.14C15.4531 6.08164 15.8316 5.12131 15.3551 4.64484C14.8786 4.16838 13.9236 4.54635 12.8621 5.60781Z" stroke="#7F7F7F" stroke-linecap="round" stroke-linejoin="round"/>
</g>
</svg>
