<svg width="20" height="20" viewBox="0 0 20 20" fill="none" xmlns="http://www.w3.org/2000/svg">
<g id="Icon / Calendar">
<g id="Group 165498">
<path id="Vector" d="M16.4 1.50006H3.6C2.71799 1.50006 2 2.21806 2 3.10006V15.9001C2 16.7821 2.71799 17.5001 3.6 17.5001H16.4C17.282 17.5001 18 16.7821 18 15.9001V3.10006C18 2.21806 17.282 1.50006 16.4 1.50006ZM16.9333 15.9001C16.9333 16.1947 16.6947 16.4334 16.4 16.4334H3.6C3.30533 16.4334 3.06667 16.1947 3.06667 15.9001V3.10006C3.06667 2.80605 3.30533 2.56673 3.6 2.56673H16.4C16.6947 2.56673 16.9333 2.80605 16.9333 3.10006V15.9001Z" fill="#7F7F7F"/>
<path id="Vector_2" d="M5.17331 5.07808C5.46798 5.07808 5.70664 4.83942 5.70664 4.54475C5.70664 4.25007 5.46798 4.01141 5.17331 4.01141H5.05531C4.76063 4.01141 4.52197 4.25007 4.52197 4.54475C4.52197 4.83942 4.76063 5.07808 5.05531 5.07808H5.17331Z" fill="#7F7F7F"/>
<path id="Vector_3" d="M6.96668 5.07808H7.08468C7.37936 5.07808 7.61802 4.83942 7.61802 4.54475C7.61802 4.25007 7.37936 4.01141 7.08468 4.01141H6.96668C6.67201 4.01141 6.43335 4.25007 6.43335 4.54475C6.43335 4.83942 6.67201 5.07808 6.96668 5.07808Z" fill="#7F7F7F"/>
<path id="Vector_4" d="M14.9448 4.01141H13.9008C13.6061 4.01141 13.3674 4.25007 13.3674 4.54475C13.3674 4.83942 13.6061 5.07808 13.9008 5.07808H14.9448C15.2394 5.07808 15.4781 4.83942 15.4781 4.54475C15.4781 4.25074 15.2388 4.01141 14.9448 4.01141Z" fill="#7F7F7F"/>
<path id="Vector_5" d="M14.5132 7.72275H5.48646C5.19179 7.72275 4.95312 7.96141 4.95312 8.25608C4.95312 8.55075 5.19179 8.78941 5.48646 8.78941H14.5139C14.8085 8.78941 15.0472 8.55075 15.0472 8.25608C15.0465 7.96141 14.8085 7.72275 14.5132 7.72275Z" fill="#7F7F7F"/>
<path id="Vector_6" d="M14.5132 10.2188H5.48646C5.19179 10.2188 4.95312 10.4574 4.95312 10.7521C4.95312 11.0468 5.19179 11.2854 5.48646 11.2854H14.5139C14.8085 11.2854 15.0472 11.0468 15.0472 10.7521C15.0465 10.4567 14.8085 10.2188 14.5132 10.2188Z" fill="#7F7F7F"/>
<path id="Vector_7" d="M9.99998 12.7141H5.4867C5.19203 12.7141 4.95337 12.9527 4.95337 13.2474C4.95337 13.5421 5.19203 13.7807 5.4867 13.7807H9.99998C10.2947 13.7807 10.5333 13.5421 10.5333 13.2474C10.5333 12.952 10.2947 12.7141 9.99998 12.7141Z" fill="#7F7F7F"/>
</g>
</g>
</svg>
