<svg width="20" height="20" viewBox="0 0 20 20" fill="none" xmlns="http://www.w3.org/2000/svg">
<g id="Icon / Reports">
<path id="Vector" d="M4.3505 7.20106C4.1427 7.20106 3.94342 7.28361 3.79648 7.43054C3.64955 7.57748 3.567 7.77676 3.567 7.98456V14.2526C3.567 14.4604 3.64955 14.6596 3.79648 14.8066C3.94342 14.9535 4.1427 15.0361 4.3505 15.0361H15.3195C15.5273 15.0361 15.7266 14.9535 15.8735 14.8066C16.0205 14.6596 16.103 14.4604 16.103 14.2526V7.98456C16.103 7.77676 16.0205 7.57748 15.8735 7.43054C15.7266 7.28361 15.5273 7.20106 15.3195 7.20106H4.3505ZM5.9175 5.63406V4.85056C5.9175 4.22717 6.16514 3.62931 6.60595 3.18851C7.04675 2.7477 7.64461 2.50006 8.268 2.50006H11.402C12.0254 2.50006 12.6233 2.7477 13.0641 3.18851C13.5049 3.62931 13.7525 4.22717 13.7525 4.85056V5.63406H15.3195C15.9429 5.63406 16.5408 5.8817 16.9816 6.32251C17.4224 6.76331 17.67 7.36117 17.67 7.98456V14.2526C17.67 14.876 17.4224 15.4738 16.9816 15.9146C16.5408 16.3554 15.9429 16.6031 15.3195 16.6031H4.3505C3.72711 16.6031 3.12925 16.3554 2.68845 15.9146C2.24764 15.4738 2 14.876 2 14.2526V7.98456C2 7.36117 2.24764 6.76331 2.68845 6.32251C3.12925 5.8817 3.72711 5.63406 4.3505 5.63406H5.9175ZM7.4845 5.63406H12.1855V4.85056C12.1855 4.64276 12.103 4.44348 11.956 4.29654C11.8091 4.14961 11.6098 4.06706 11.402 4.06706H8.268C8.0602 4.06706 7.86092 4.14961 7.71398 4.29654C7.56705 4.44348 7.4845 4.64276 7.4845 4.85056V5.63406ZM9.0515 8.76806H10.6185V13.4691H9.0515V8.76806ZM7.4845 10.3351H12.1855V11.9021H7.4845V10.3351Z" fill="#7F7F7F"/>
</g>
</svg>
