<svg width="20" height="20" viewBox="0 0 20 20" fill="none" xmlns="http://www.w3.org/2000/svg">
<g id="Icon / User 1">
<path id="Vector" d="M7.26087 8.88466C6.45369 8.88466 5.67957 8.56049 5.1088 7.98345C4.53804 7.40642 4.21739 6.62379 4.21739 5.80774V3.3462C4.21739 3.18299 4.28152 3.02646 4.39567 2.91106C4.50983 2.79565 4.66465 2.73082 4.82609 2.73082H5.43478C5.59622 2.73082 5.75104 2.66598 5.86519 2.55057C5.97935 2.43517 6.04348 2.27864 6.04348 2.11543C6.04348 1.95222 5.97935 1.79569 5.86519 1.68029C5.75104 1.56488 5.59622 1.50005 5.43478 1.50005H4.82609C4.34178 1.50005 3.87731 1.69455 3.53485 2.04077C3.19239 2.38699 3 2.85657 3 3.3462V5.80774C3.00078 6.50296 3.16847 7.1876 3.48866 7.80287C3.80885 8.41813 4.27198 8.94562 4.83826 9.34005C5.38288 9.82452 5.82448 10.4158 6.13628 11.078C6.44809 11.7402 6.6236 12.4595 6.65217 13.1924C6.65217 14.3348 7.10108 15.4305 7.90015 16.2384C8.69922 17.0462 9.78299 17.5 10.913 17.5C12.0431 17.5 13.1269 17.0462 13.9259 16.2384C14.725 15.4305 15.1739 14.3348 15.1739 13.1924V12.4908C15.7477 12.341 16.2478 11.9848 16.5804 11.489C16.913 10.9931 17.0553 10.3916 16.9806 9.79728C16.9059 9.20293 16.6194 8.65652 16.1747 8.26046C15.7301 7.86441 15.1578 7.6459 14.5652 7.6459C13.9726 7.6459 13.4003 7.86441 12.9557 8.26046C12.511 8.65652 12.2245 9.20293 12.1498 9.79728C12.0752 10.3916 12.2175 10.9931 12.5501 11.489C12.8827 11.9848 13.3827 12.341 13.9565 12.4908V13.1924C13.9565 14.0084 13.6359 14.791 13.0651 15.3681C12.4943 15.9451 11.7202 16.2693 10.913 16.2693C10.1059 16.2693 9.33174 15.9451 8.76098 15.3681C8.19021 14.791 7.86956 14.0084 7.86956 13.1924C7.89967 12.4586 8.07708 11.7387 8.39101 11.0765C8.70493 10.4142 9.14881 9.82343 9.69565 9.34005C10.2597 8.94425 10.7204 8.41616 11.0385 7.80098C11.3565 7.1858 11.5223 6.50187 11.5217 5.80774V3.3462C11.5217 2.85657 11.3293 2.38699 10.9869 2.04077C10.6444 1.69455 10.18 1.50005 9.69565 1.50005H9.08695C8.92552 1.50005 8.77069 1.56488 8.65654 1.68029C8.54239 1.79569 8.47826 1.95222 8.47826 2.11543C8.47826 2.27864 8.54239 2.43517 8.65654 2.55057C8.77069 2.66598 8.92552 2.73082 9.08695 2.73082H9.69565C9.85709 2.73082 10.0119 2.79565 10.1261 2.91106C10.2402 3.02646 10.3043 3.18299 10.3043 3.3462V5.80774C10.3043 6.21181 10.2256 6.61192 10.0727 6.98523C9.91972 7.35854 9.69554 7.69773 9.41293 7.98345C9.13032 8.26917 8.79481 8.49581 8.42556 8.65044C8.0563 8.80507 7.66054 8.88466 7.26087 8.88466ZM14.5652 11.3462C14.2423 11.3462 13.9327 11.2165 13.7044 10.9857C13.4761 10.7549 13.3478 10.4419 13.3478 10.1154C13.3478 9.78901 13.4761 9.47596 13.7044 9.24515C13.9327 9.01433 14.2423 8.88466 14.5652 8.88466C14.8881 8.88466 15.1977 9.01433 15.426 9.24515C15.6543 9.47596 15.7826 9.78901 15.7826 10.1154C15.7826 10.4419 15.6543 10.7549 15.426 10.9857C15.1977 11.2165 14.8881 11.3462 14.5652 11.3462Z" fill="#7F7F7F"/>
</g>
</svg>
