<svg width="20" height="20" viewBox="0 0 20 20" fill="none" xmlns="http://www.w3.org/2000/svg">
<g id="Icon / Reports">
<g id="Group 481528">
<path id="Vector" d="M7.36658 17.3788C7.48545 17.3788 7.59979 17.3307 7.68418 17.2472L15.4236 9.50689C15.5987 9.33175 15.5987 9.04681 15.4236 8.87168L11.6259 5.07399C11.4508 4.89886 11.1658 4.89886 10.9907 5.07399L3.25036 12.8143C3.07522 12.9895 3.07522 13.2735 3.25036 13.4486L7.04897 17.2472C7.13336 17.3316 7.24679 17.3788 7.36658 17.3788ZM7.36658 16.2944L4.20424 13.1321L11.3095 6.02685L14.4718 9.18919L7.36658 16.2944Z" fill="#7F7F7F"/>
<path id="Vector_2" d="M13.9911 8.52318C14.11 8.52318 14.2243 8.47599 14.3087 8.3916L15.8414 6.85894L15.8414 6.85803C16.0174 6.68289 16.0174 6.39886 15.8414 6.22373L14.2742 4.65659C14.0991 4.48055 13.8151 4.48055 13.6399 4.65659L12.1073 6.18925L12.1063 6.18925C11.9312 6.36439 11.9312 6.64933 12.1063 6.82446L13.6735 8.3916C13.7579 8.47599 13.8722 8.52318 13.9911 8.52318ZM13.9911 7.43879L13.0592 6.50686L13.9566 5.60941L14.8885 6.54133L13.9911 7.43879Z" fill="#7F7F7F"/>
<path id="Vector_3" d="M14.7404 6.20642C14.8593 6.20642 14.9736 6.15923 15.058 6.07484L17.8684 3.26537C17.9519 3.18098 18 3.06665 18 2.94777C18 2.82889 17.9519 2.71456 17.8684 2.63016C17.784 2.54577 17.6697 2.49859 17.5508 2.49859C17.431 2.49859 17.3176 2.54577 17.2332 2.63016L14.4228 5.43963C14.3384 5.52402 14.2912 5.63836 14.2912 5.75724C14.2912 5.87611 14.3384 5.99045 14.4228 6.07484C14.5072 6.15923 14.6215 6.20642 14.7404 6.20642Z" fill="#7F7F7F"/>
<path id="Vector_4" d="M3.45553 17.4912C3.57531 17.4912 3.68874 17.444 3.77314 17.3596L5.78493 15.3479C5.86932 15.2635 5.9165 15.1491 5.9165 15.0303C5.9165 14.9114 5.86932 14.797 5.78493 14.7127C5.70053 14.6283 5.5862 14.5811 5.46732 14.5811C5.34844 14.5811 5.23411 14.6283 5.14972 14.7127L3.13793 16.7244C3.05444 16.8088 3.00635 16.9232 3.00635 17.042C3.00635 17.1609 3.05444 17.2753 3.13793 17.3596C3.22232 17.444 3.33666 17.4912 3.45553 17.4912Z" fill="#7F7F7F"/>
<path id="Vector_5" d="M4.46195 18.4978C4.58082 18.4978 4.69516 18.4497 4.77955 18.3662C4.86394 18.2818 4.91113 18.1675 4.91113 18.0486C4.91113 17.9288 4.86395 17.8154 4.77955 17.731L2.76776 15.7192L2.76686 15.7192C2.68247 15.6348 2.56904 15.5876 2.44925 15.5876C2.33038 15.5876 2.21604 15.6348 2.13165 15.7192C2.04816 15.8027 2.00007 15.917 2.00007 16.0368C2.00007 16.1557 2.04816 16.27 2.13165 16.3544L4.14344 18.3662L4.14435 18.3662C4.22874 18.4497 4.34307 18.4978 4.46195 18.4978Z" fill="#7F7F7F"/>
<path id="Vector_6" d="M9.33744 11.6093C9.45631 11.6093 9.57065 11.5621 9.65504 11.4777C9.73943 11.3943 9.78662 11.2799 9.78662 11.1601C9.78662 11.0413 9.73944 10.9269 9.65504 10.8425L7.75578 8.94327L7.75578 8.94417C7.67139 8.85978 7.55705 8.8126 7.43818 8.8126C7.3193 8.8126 7.20497 8.85978 7.12057 8.94417C7.03618 9.02766 6.98899 9.14199 6.98899 9.26178C6.98899 9.38065 7.03618 9.49499 7.12057 9.57938L9.01983 11.4786L9.01983 11.4777C9.10422 11.5621 9.21856 11.6093 9.33744 11.6093Z" fill="#7F7F7F"/>
<path id="Vector_7" d="M11.0826 9.86427C11.2014 9.86427 11.3158 9.81709 11.4002 9.73269C11.4846 9.64921 11.5317 9.53487 11.5317 9.41509C11.5317 9.29622 11.4846 9.18188 11.4002 9.09839L9.5009 7.19913C9.41651 7.11474 9.30217 7.06755 9.18329 7.06755C9.06442 7.06755 8.95009 7.11474 8.86569 7.19913C8.7813 7.28352 8.73411 7.39695 8.73411 7.51674C8.73411 7.63561 8.7813 7.74994 8.86569 7.83434L10.765 9.7336L10.765 9.73269C10.8493 9.81708 10.9637 9.86427 11.0826 9.86427Z" fill="#7F7F7F"/>
<path id="Vector_8" d="M7.59257 13.3544C7.71144 13.3544 7.82577 13.3072 7.91017 13.2228C7.99456 13.1393 8.04175 13.025 8.04175 12.9052C8.04175 12.7863 7.99456 12.672 7.91017 12.5876L6.01091 10.6883L6.01091 10.6892C5.92652 10.6048 5.81218 10.5577 5.6933 10.5577C5.57443 10.5577 5.4601 10.6048 5.3757 10.6892C5.29131 10.7727 5.24412 10.887 5.24412 11.0068C5.24412 11.1257 5.29131 11.24 5.3757 11.3244L7.27496 13.2237L7.27496 13.2228C7.35935 13.3072 7.47369 13.3544 7.59257 13.3544Z" fill="#7F7F7F"/>
</g>
</g>
</svg>
