<svg width="20" height="20" viewBox="0 0 20 20" fill="none" xmlns="http://www.w3.org/2000/svg">
<g id="Icon / Page">
<g id="Group">
<path id="Vector" d="M6.17333 12.3334H6.16583M10.3333 12.3334C10.3333 13.4385 9.89435 14.4983 9.11295 15.2797C8.33154 16.0611 7.27174 16.5001 6.16667 16.5001C5.0616 16.5001 4.00179 16.0611 3.22039 15.2797C2.43899 14.4983 2 13.4385 2 12.3334C2 11.2283 2.43899 10.1685 3.22039 9.38711C4.00179 8.6057 5.0616 8.16672 6.16667 8.16672C7.27174 8.16672 8.33154 8.6057 9.11295 9.38711C9.89435 10.1685 10.3333 11.2283 10.3333 12.3334ZM15.3333 15.2501C15.3333 15.5816 15.2016 15.8995 14.9672 16.1339C14.7328 16.3684 14.4149 16.5001 14.0833 16.5001C13.7518 16.5001 13.4339 16.3684 13.1995 16.1339C12.965 15.8995 12.8333 15.5816 12.8333 15.2501C12.8333 14.9185 12.965 14.6006 13.1995 14.3662C13.4339 14.1317 13.7518 14.0001 14.0833 14.0001C14.4149 14.0001 14.7328 14.1317 14.9672 14.3662C15.2016 14.6006 15.3333 14.9185 15.3333 15.2501Z" stroke="#7F7F7F" stroke-width="1.2" stroke-linecap="round" stroke-linejoin="round"/>
<path id="Vector_2" d="M5.33333 8.16671L4.81 3.98088C4.68917 3.01505 4.62917 2.53255 4.375 2.18505C4.23214 1.98879 4.04812 1.82611 3.83583 1.70838C3.45917 1.50005 2.9725 1.50005 2 1.50005M5.33333 4.83338H9.91667C11.8808 4.83338 12.8633 4.83338 13.4733 5.44338C14.0833 6.05338 14.0833 7.03588 14.0833 9.00005V14" stroke="#7F7F7F" stroke-width="1.2" stroke-linecap="round" stroke-linejoin="round"/>
<path id="Vector_3" d="M10.3333 10.6667H13.6866C14.4241 10.6667 14.7933 10.6667 15.1141 10.8242C15.1919 10.862 15.266 10.9059 15.3366 10.9559C15.6333 11.1642 15.8374 11.5051 16.2466 12.1842C16.5741 12.7284 16.7383 13.0009 16.9833 13.1067C17.0416 13.1312 17.1013 13.1487 17.1624 13.1592C17.4224 13.2026 17.6866 13.0559 18.2149 12.7634L18.6666 12.5134" stroke="#7F7F7F" stroke-width="1.2" stroke-linecap="round" stroke-linejoin="round"/>
</g>
</g>
</svg>
