<svg width="20" height="20" viewBox="0 0 20 20" fill="none" xmlns="http://www.w3.org/2000/svg">
<g id="Icon / Settings">
<g id="Group">
<path id="Vector" d="M9.76255 12.7626C12.125 12.7626 14.0375 10.8501 14.0375 8.48756V4.77506C14.0375 2.41256 12.125 0.500061 9.76255 0.500061C7.40005 0.500061 5.48755 2.41256 5.48755 4.77506V8.48756C5.48755 10.8501 7.40005 12.7626 9.76255 12.7626ZM7.70005 8.11256H6.23755V7.02506H7.70005C7.92505 7.02506 8.07505 6.87506 8.07505 6.65006C8.07505 6.42506 7.92505 6.27506 7.70005 6.27506H6.23755V5.18756H7.70005C7.92505 5.18756 8.07505 5.03756 8.07505 4.81256C8.07505 4.58756 7.92505 4.43756 7.70005 4.43756H6.27505C6.46255 2.63756 7.96255 1.25006 9.76255 1.25006C11.5625 1.25006 13.0625 2.63756 13.25 4.40006H11.825C11.6 4.40006 11.45 4.55006 11.45 4.77506C11.45 5.00006 11.6 5.15006 11.825 5.15006H13.2875V6.23756H11.825C11.6 6.23756 11.45 6.38756 11.45 6.61256C11.45 6.83756 11.6 6.98756 11.825 6.98756H13.2875V8.07506H11.825C11.6 8.07506 11.45 8.22506 11.45 8.45006C11.45 8.67506 11.6 8.82506 11.825 8.82506H13.25C13.0625 10.5876 11.5625 11.9751 9.76255 11.9751C7.96255 11.9751 6.46255 10.5876 6.27505 8.82506H7.70005C7.92505 8.82506 8.07505 8.67506 8.07505 8.45006C8.07505 8.22506 7.88755 8.11256 7.70005 8.11256Z" fill="#7F7F7F"/>
<path id="Vector_2" d="M3.425 6.08755C2.6375 6.08755 2 6.72506 2 7.51256C2 8.30006 2.6375 8.93756 3.425 8.93756C3.65 8.93756 3.9125 8.86256 4.1 8.75006C4.2125 11.6376 6.5 13.9626 9.3875 14.1501V17.7501H5.675C5.45 17.7501 5.3 17.9001 5.3 18.1251C5.3 18.3501 5.45 18.5001 5.675 18.5001H13.8125C14.0375 18.5001 14.1875 18.3501 14.1875 18.1251C14.1875 17.9001 14.0375 17.7501 13.8125 17.7501H10.1375V14.1501C13.025 13.9626 15.3125 11.6376 15.425 8.75006C15.6125 8.86256 15.8375 8.93756 16.1 8.93756C16.8875 8.93756 17.525 8.30006 17.525 7.51256C17.525 6.72506 16.8875 6.08755 16.1 6.08755C15.3125 6.08755 14.675 6.72506 14.675 7.51256C14.675 7.55006 14.675 8.48755 14.675 8.48755C14.675 11.1876 12.4625 13.4001 9.7625 13.4001C7.0625 13.4001 4.85 11.1876 4.85 8.48755C4.85 8.48755 4.85 7.55006 4.85 7.51256C4.85 6.72506 4.2125 6.08755 3.425 6.08755ZM3.425 8.15005C3.05 8.15005 2.75 7.85006 2.75 7.47506C2.75 7.10006 3.05 6.80005 3.425 6.80005C3.8 6.80005 4.1 7.10006 4.1 7.47506C4.1 7.85006 3.8 8.15005 3.425 8.15005ZM16.1 6.83755C16.475 6.83755 16.775 7.13756 16.775 7.51256C16.775 7.88756 16.475 8.18756 16.1 8.18756C15.725 8.18756 15.425 7.88756 15.425 7.51256C15.425 7.13756 15.725 6.83755 16.1 6.83755Z" fill="#7F7F7F"/>
</g>
</g>
</svg>
