<svg width="70" height="71" viewBox="0 0 70 71" fill="none" xmlns="http://www.w3.org/2000/svg">
<g id="Group 39626">
<circle id="Ellipse 1" cx="35.0001" cy="35.5001" r="35.0001" fill="#EFF6FF"/>
<g id="Group 39625">
<path id="Vector" fill-rule="evenodd" clip-rule="evenodd" d="M36.7702 60.7901C35.1025 60.7901 33.3555 60.2841 31.6415 59.2962C26.8978 56.5592 23.2631 52.8627 20.8405 48.3105C18.5831 44.0641 17.7778 39.8792 17.3686 37.1029C16.7899 32.8301 17.329 28.6299 18.9241 24.9422C20.8361 20.5242 20.0594 14.3198 20.0506 14.2556C20.0088 13.9388 20.2332 13.6484 20.5501 13.6066C20.8669 13.5648 21.1573 13.7892 21.1991 14.106C21.2343 14.3722 22.0264 20.6871 19.9868 25.4021C18.4973 28.8432 17.9758 32.9424 18.5171 36.9398C19.4455 43.2454 21.8768 52.3279 32.2222 58.2927C34.1979 59.4302 36.1166 59.8505 37.9296 59.5337C38.9153 59.3598 39.8438 59.0078 40.6887 58.4819C41.5357 57.9561 42.264 57.2806 42.8537 56.4732C46.6535 51.2674 54.4798 37.9629 45.1067 26.8781C44.8999 26.6339 44.9307 26.2686 45.1749 26.0618C45.4191 25.855 45.7844 25.8858 45.989 26.13C55.8921 37.8418 47.7492 51.7271 43.7866 57.1552C43.1089 58.0837 42.2706 58.8603 41.2981 59.4654C40.3256 60.0683 39.2585 60.4754 38.1254 60.6733C37.681 60.7503 37.2277 60.7899 36.7678 60.7899L36.7702 60.7901Z" fill="#005CD4"/>
<path id="Vector_2" fill-rule="evenodd" clip-rule="evenodd" d="M17.9431 37.5968C17.8991 37.5968 17.8529 37.5924 17.8089 37.5814C17.4987 37.5066 17.3073 37.1986 17.3799 36.8861C17.4107 36.7585 18.1653 33.6914 21.8111 29.9271C23.9277 27.7401 26.5966 25.7621 29.7383 24.0462C33.6481 21.9098 38.3128 20.176 43.5995 18.8911C45.1924 18.5039 47.6655 18.0132 49.2872 17.7184C49.6018 17.6612 49.9033 17.8702 49.9605 18.1849C50.0177 18.4995 49.8087 18.8009 49.494 18.8581C47.8878 19.1485 45.4434 19.6348 43.8725 20.0176C32.2047 22.8537 25.9255 27.3709 22.7133 30.662C19.248 34.2088 18.5131 37.1282 18.5064 37.1569C18.4426 37.4231 18.205 37.6013 17.9432 37.6013L17.9431 37.5968Z" fill="#005CD4"/>
<path id="Vector_3" fill-rule="evenodd" clip-rule="evenodd" d="M34.0763 52.1895C33.9575 52.1895 33.8365 52.1521 33.733 52.0773C33.4756 51.8881 33.4206 51.525 33.6098 51.2676C37.062 46.5746 37.1324 40.1653 36.8706 36.7638C36.7341 34.9905 37.2424 33.2501 38.3007 31.8618C42.4635 26.3986 50.734 23.2592 51.0838 23.1268C51.383 23.0146 51.7152 23.1664 51.8274 23.4656C51.9396 23.7649 51.7878 24.0993 51.4886 24.2115C51.405 24.2423 43.1761 27.3688 39.2204 32.5634C38.3359 33.7252 37.9113 35.1861 38.0257 36.6735C38.3007 40.2356 38.2149 46.9596 34.5427 51.954C34.4305 52.108 34.2545 52.1895 34.0763 52.1895Z" fill="#005CD4"/>
<path id="Vector_4" fill-rule="evenodd" clip-rule="evenodd" d="M46.9203 40.3002C46.6497 40.3002 46.4077 40.111 46.3527 39.836C46.2294 39.2199 45.7256 38.7007 45.323 38.375C45.1008 38.1946 44.8477 38.0274 44.5683 37.8778C44.3197 37.7435 44.0469 37.6247 43.7565 37.5235C43.2768 37.3563 42.828 37.1715 42.4231 36.9713C38.7202 35.1693 38.6036 32.5269 38.7246 31.4751C38.762 31.1583 39.0502 30.9295 39.3648 30.9669C39.6817 31.0043 39.9105 31.2903 39.8731 31.6071C39.7807 32.4146 39.8907 34.4542 42.9292 35.9306C43.2944 36.1088 43.6993 36.2782 44.1371 36.43C44.4825 36.551 44.8103 36.694 45.114 36.8569C45.4572 37.0395 45.7719 37.2485 46.0513 37.4751C46.85 38.122 47.334 38.8393 47.488 39.6072C47.5496 39.9218 47.3472 40.2255 47.0326 40.287C46.9952 40.2958 46.9556 40.298 46.9182 40.298L46.9203 40.3002Z" fill="#005CD4"/>
<path id="Vector_5" fill-rule="evenodd" clip-rule="evenodd" d="M26.3812 27.394C26.0797 27.394 25.8223 27.1585 25.8047 26.8505C25.4505 21.1718 28.2206 17.781 29.4285 16.5863C29.7365 16.2805 29.8795 15.8405 29.8091 15.4048L29.4747 13.3168C29.3867 12.7689 29.7431 12.2497 30.2865 12.1375C30.7046 12.0517 31.3053 11.8954 31.7937 11.6578C32.0555 11.5302 32.3614 11.5192 32.6298 11.6248C32.8982 11.7304 33.1138 11.9482 33.2173 12.2189L33.7607 13.6424V13.6446H33.7673L34.2976 11.0638C34.401 10.5511 34.8718 10.1969 35.3955 10.2387C35.7167 10.2651 36.3394 10.3003 36.9246 10.2541C37.204 10.2299 37.4724 10.3201 37.6859 10.5005C37.8971 10.6809 38.0247 10.934 38.0445 11.2112L38.2359 13.8405C38.2337 13.8427 38.2447 13.8449 38.2469 13.8449L39.5143 11.7217C39.6881 11.4334 39.9895 11.2464 40.3217 11.2222C40.654 11.1958 40.984 11.3344 41.1974 11.5897C41.4483 11.8889 41.8685 12.2981 42.4405 12.5533C42.698 12.6677 42.9004 12.8856 42.9928 13.1496C43.0874 13.4158 43.0632 13.7128 42.9334 13.9659C42.9312 13.9725 42.9268 13.9769 42.9224 13.9835C42.1369 15.4972 42.4427 17.3828 43.6682 18.5687L44.1479 19.0329C44.3789 19.2551 44.3833 19.6204 44.1611 19.8514C43.9389 20.0824 43.5714 20.0868 43.3426 19.8646L42.863 19.4004C41.2987 17.8866 40.8872 15.4994 41.8443 13.5498C41.2128 13.244 40.7376 12.8106 40.4208 12.4585L39.2348 14.4365C38.973 14.8721 38.4648 15.0877 37.9675 14.969C37.4725 14.8501 37.116 14.4299 37.0786 13.9216L36.896 11.4134C36.3526 11.4486 35.8091 11.4266 35.4087 11.398L34.9026 13.871C34.7992 14.3837 34.379 14.7555 33.8575 14.7973C33.3383 14.8391 32.863 14.5399 32.6782 14.0536L32.1831 12.7533C31.6617 12.9909 31.0787 13.1493 30.6364 13.2462L30.9532 15.2197C31.0808 16.0228 30.8168 16.8413 30.2448 17.4067C29.1513 18.4893 26.6386 21.5717 26.9642 26.7754C26.9841 27.0944 26.742 27.3694 26.423 27.3892H26.3856L26.3812 27.394Z" fill="#005CD4"/>
<path id="Vector_6" fill-rule="evenodd" clip-rule="evenodd" d="M49.6712 18.8193C49.6404 18.8193 49.6118 18.8237 49.5854 18.8325C49.2466 18.9513 49.0354 19.9876 49.4886 21.2769C49.7086 21.8996 50.0453 22.4563 50.4171 22.8039C50.6789 23.0503 50.9451 23.1735 51.0947 23.1207C51.2466 23.0679 51.3742 22.8061 51.4248 22.4496C51.4974 21.9458 51.4116 21.2989 51.1915 20.6763C50.7735 19.4838 50.0452 18.8171 49.669 18.8171L49.6712 18.8193ZM51.0156 24.2935C50.5579 24.2935 50.0782 24.0735 49.625 23.651C49.1145 23.1736 48.6789 22.4673 48.3951 21.6621C47.746 19.8161 48.0914 18.1307 49.2004 17.7413C50.307 17.3519 51.6338 18.4498 52.2829 20.2935C52.5667 21.0988 52.6679 21.9217 52.5711 22.6148C52.4545 23.4398 52.0651 24.0097 51.4776 24.2165C51.3258 24.2693 51.1718 24.2957 51.0134 24.2957L51.0156 24.2935Z" fill="#005CD4"/>
<path id="Vector_7" fill-rule="evenodd" clip-rule="evenodd" d="M24.0112 13.3097C22.1674 13.3097 21.2015 13.9588 21.2015 14.1832C21.2015 14.4076 22.1674 15.0567 24.0112 15.0567C25.8549 15.0567 26.8209 14.4077 26.8209 14.1832C26.8209 13.9588 25.855 13.3097 24.0112 13.3097ZM24.0112 16.214C22.0398 16.214 20.0442 15.5165 20.0442 14.1832C20.0442 12.8498 22.0398 12.1523 24.0112 12.1523C25.9826 12.1523 27.9782 12.8498 27.9782 14.1832C27.9782 15.5165 25.9826 16.214 24.0112 16.214Z" fill="#005CD4"/>
<path id="Vector_8" fill-rule="evenodd" clip-rule="evenodd" d="M27.9207 20.1133C27.6258 20.1133 27.3728 19.8888 27.3442 19.5896L26.8294 14.2387C26.7986 13.9219 27.0318 13.638 27.3508 13.6072C27.6699 13.5764 27.9515 13.8096 27.9823 14.1287L28.4972 19.4796C28.528 19.7986 28.2947 20.0802 27.9757 20.1111C27.9559 20.1133 27.9383 20.1133 27.9185 20.1133L27.9207 20.1133Z" fill="#005CD4"/>
<path id="Vector_9" fill-rule="evenodd" clip-rule="evenodd" d="M32.0328 48.8363C31.7665 48.8363 31.5267 48.6515 31.4673 48.3808C31.3991 48.0684 31.5971 47.7604 31.9095 47.6922L36.1582 46.7703C36.4706 46.7021 36.7787 46.9001 36.8469 47.2125C36.9151 47.525 36.717 47.833 36.4046 47.9012L32.1582 48.8231C32.1164 48.8319 32.0768 48.8363 32.035 48.8363L32.0328 48.8363Z" fill="#005CD4"/>
<path id="Vector_10" fill-rule="evenodd" clip-rule="evenodd" d="M39.2811 48.3785C39.0809 48.3785 38.8851 48.2729 38.7773 48.0859L36.6255 44.3191C36.4671 44.0419 36.5639 43.6877 36.8411 43.5293C37.1183 43.3709 37.4726 43.4677 37.6309 43.7449L39.7827 47.5117C39.9412 47.7889 39.8443 48.1431 39.5671 48.3015C39.4769 48.3521 39.3779 48.3785 39.2811 48.3785Z" fill="#005CD4"/>
<path id="Vector_11" fill-rule="evenodd" clip-rule="evenodd" d="M34.1604 42.0525C33.98 42.0525 33.8018 41.9689 33.6874 41.8083C33.5025 41.5487 33.5619 41.1878 33.8238 41.0008L37.2077 38.5849C37.4673 38.4001 37.8282 38.4595 38.0152 38.7192C38.2022 38.9788 38.1406 39.3418 37.881 39.5266L34.497 41.9425C34.3936 42.0151 34.277 42.0503 34.1604 42.0503L34.1604 42.0525Z" fill="#005CD4"/>
<path id="Vector_12" fill-rule="evenodd" clip-rule="evenodd" d="M41.8116 40.5725C41.7654 40.5725 41.7192 40.5659 41.673 40.5549C41.3628 40.4779 41.1736 40.1633 41.2506 39.8531L42.1263 36.3107C42.2033 36.0005 42.5179 35.8113 42.8281 35.8883C43.1384 35.9653 43.3276 36.2777 43.2506 36.5879L42.3749 40.1325C42.3089 40.3965 42.0735 40.5725 41.8138 40.5725H41.8116Z" fill="#005CD4"/>
<path id="Vector_13" fill-rule="evenodd" clip-rule="evenodd" d="M44.846 37.9445C44.6898 37.9445 44.5336 37.8807 44.4192 37.7575C44.2035 37.5221 44.2189 37.1569 44.4544 36.9412L46.5314 35.0359C46.7668 34.8202 47.1342 34.8356 47.3498 35.0711C47.5654 35.3065 47.55 35.6739 47.3146 35.8895L45.2376 37.7949C45.1276 37.8983 44.9868 37.9467 44.846 37.9467L44.846 37.9445Z" fill="#005CD4"/>
<path id="Vector_14" fill-rule="evenodd" clip-rule="evenodd" d="M24.8241 42.0536C24.7955 42.0536 24.7647 42.0514 24.7361 42.047C24.4215 41.9985 24.2014 41.7037 24.2498 41.3869C24.8307 37.5299 26.8263 34.5354 28.3973 32.7049C30.0958 30.7247 31.6469 29.6598 31.7108 29.6136C31.977 29.4332 32.3356 29.5014 32.5161 29.7654C32.6965 30.0294 32.6283 30.3881 32.3642 30.5685C32.3048 30.6081 26.4281 34.6982 25.3962 41.5587C25.3522 41.8447 25.1058 42.0515 24.8264 42.0515L24.8241 42.0536Z" fill="#005CD4"/>
<path id="Vector_15" fill-rule="evenodd" clip-rule="evenodd" d="M22.8339 40.1381C22.5897 40.1381 22.3631 39.9841 22.2839 39.7399C22.1849 39.4363 22.3499 39.1106 22.6535 39.0094L25.3399 38.1293C25.6436 38.0303 25.9714 38.1953 26.0704 38.499C26.1694 38.8026 26.0044 39.1304 25.7008 39.2294L23.0143 40.1095C22.9549 40.1293 22.8933 40.1381 22.8339 40.1381Z" fill="#005CD4"/>
<path id="Vector_16" fill-rule="evenodd" clip-rule="evenodd" d="M28.4289 39.6974C28.2243 39.6974 28.0263 39.5896 27.9207 39.3982L26.2265 36.3333C26.0725 36.0538 26.1737 35.7018 26.4531 35.5456C26.7326 35.3916 27.0846 35.4928 27.2408 35.7722L28.935 38.8371C29.089 39.1165 28.9878 39.4686 28.7083 39.6226C28.6203 39.671 28.5235 39.6952 28.4289 39.6952L28.4289 39.6974Z" fill="#005CD4"/>
<path id="Vector_17" fill-rule="evenodd" clip-rule="evenodd" d="M28.9652 33.5157H25.0642C24.7452 33.5157 24.4856 33.256 24.4856 32.937C24.4856 32.618 24.7452 32.3584 25.0642 32.3584H28.9652C29.2842 32.3584 29.5438 32.618 29.5438 32.937C29.5438 33.256 29.2842 33.5157 28.9652 33.5157Z" fill="#005CD4"/>
</g>
</g>
</svg>
