<svg width="70" height="71" viewBox="0 0 70 71" fill="none" xmlns="http://www.w3.org/2000/svg">
<g id="Group 39626">
<circle id="Ellipse 1" cx="35.0001" cy="35.5001" r="35.0001" fill="#EFF6FF"/>
<g id="Group 39627">
<path id="Vector" d="M35.0006 21.9993C34.7866 21.999 34.5808 21.9283 34.4249 21.8015C34.269 21.6747 34.1748 21.5013 34.1614 21.3166C34.1083 20.5775 33.7427 19.8811 33.1341 19.3602C32.5256 18.8393 31.7167 18.5303 30.8617 18.4921C30.0067 18.4539 29.1654 18.6892 28.498 19.1531C27.8307 19.617 27.384 20.2771 27.2432 21.0076C27.2024 21.1946 27.0785 21.3603 26.8981 21.4693C26.7177 21.5783 26.4952 21.6218 26.2782 21.5907C26.0611 21.5595 25.8668 21.4561 25.7368 21.3025C25.6069 21.149 25.5515 20.9575 25.5827 20.7691C25.7911 19.6856 26.4533 18.7063 27.443 18.018C28.4327 17.3297 29.6806 16.9806 30.9488 17.0372C32.217 17.0938 33.4168 17.5521 34.3193 18.3249C35.2219 19.0976 35.764 20.1306 35.8424 21.227C35.856 21.4197 35.7804 21.6092 35.6324 21.7538C35.4844 21.8984 35.2761 21.9862 35.0532 21.9979C35.0361 21.9988 35.0185 21.9993 35.0006 21.9993Z" fill="#005CD4"/>
<path id="Vector_2" d="M21.8761 26.6106C21.7029 26.6106 21.534 26.5644 21.3923 26.4783C21.2506 26.3923 21.143 26.2705 21.0842 26.1296C20.6285 25.0338 20.685 23.8275 21.2415 22.7671C21.798 21.7068 22.8107 20.876 24.0643 20.4514C25.3179 20.0268 26.7136 20.0419 27.9545 20.4935C29.1954 20.9451 30.1838 21.7976 30.7094 22.8697C30.7849 23.0455 30.7792 23.2396 30.6933 23.4118C30.6074 23.584 30.4481 23.7208 30.2484 23.7939C30.0488 23.867 29.8243 23.8706 29.6216 23.8041C29.419 23.7376 29.2538 23.606 29.1605 23.4368C28.8076 22.7118 28.1412 22.1348 27.3034 21.8288C26.4656 21.5228 25.5228 21.512 24.676 21.7987C23.8292 22.0855 23.1454 22.6471 22.7704 23.3637C22.3955 24.0804 22.3591 24.8954 22.669 25.6349C22.7149 25.7447 22.7296 25.8624 22.7118 25.9781C22.6941 26.0939 22.6444 26.2042 22.5671 26.2999C22.4897 26.3956 22.3869 26.4737 22.2672 26.5278C22.1476 26.5819 22.0147 26.6103 21.8798 26.6106H21.8761Z" fill="#005CD4"/>
<path id="Vector_3" d="M17.9353 39.5694C17.8082 39.5695 17.6827 39.5447 17.5683 39.4969C17.4538 39.4491 17.3534 39.3794 17.2745 39.2932C16.4532 38.3957 16.0012 37.2452 16.0012 36.0515C16.0012 33.7132 17.7422 31.6825 20.1409 31.2188C20.2488 31.1979 20.3604 31.1956 20.4694 31.212C20.5784 31.2284 20.6825 31.2632 20.7759 31.3144C20.8694 31.3656 20.9502 31.4322 21.0138 31.5105C21.0775 31.5887 21.1227 31.677 21.1469 31.7704C21.1711 31.8637 21.1737 31.9603 21.1548 32.0545C21.1358 32.1488 21.0956 32.2389 21.0364 32.3197C20.9772 32.4005 20.9001 32.4704 20.8097 32.5255C20.7192 32.5805 20.6171 32.6196 20.5092 32.6405C18.8739 32.9555 17.6875 34.3899 17.6875 36.0515C17.6875 36.9162 18.0105 37.7481 18.5972 38.3894C18.6953 38.4966 18.7566 38.6256 18.7739 38.7616C18.7912 38.8975 18.7639 39.0349 18.6951 39.1581C18.6263 39.2813 18.5188 39.3852 18.3849 39.4579C18.251 39.5307 18.0961 39.5693 17.9379 39.5694H17.9353Z" fill="#005CD4"/>
<path id="Vector_4" d="M29.8259 54.8955C28.5045 54.8967 27.2188 54.5245 26.1645 53.8353C25.1103 53.1462 24.3452 52.178 23.9857 51.0781C23.1309 51.2147 22.2501 51.1625 21.4247 50.9265C20.5993 50.6906 19.8561 50.2783 19.2637 49.728C18.6714 49.1777 18.249 48.5071 18.0357 47.7782C17.8225 47.0492 17.8251 46.2855 18.0435 45.5577C16.7692 44.6325 16 43.1776 16 41.6311C16 40.4379 16.452 39.2869 17.2733 38.3894C17.3415 38.3136 17.4264 38.2501 17.5232 38.2028C17.6199 38.1554 17.7265 38.1251 17.8369 38.1136C17.9472 38.1021 18.0591 38.1096 18.1661 38.1357C18.2731 38.1618 18.373 38.2059 18.4602 38.2656C18.5473 38.3253 18.6199 38.3993 18.6739 38.4834C18.7278 38.5674 18.7619 38.6599 18.7743 38.7554C18.7867 38.851 18.777 38.9477 18.746 39.04C18.7149 39.1323 18.6631 39.2184 18.5933 39.2933C18.0067 39.9345 17.6836 40.7646 17.6836 41.6311C17.6836 42.8918 18.3739 44.0564 19.4857 44.6712C19.651 44.7626 19.7742 44.901 19.8341 45.0627C19.8939 45.2243 19.8866 45.3989 19.8135 45.5564C19.5594 46.103 19.4961 46.702 19.6313 47.2795C19.7665 47.8569 20.0944 48.3874 20.5743 48.8054C21.0542 49.2235 21.6652 49.5107 22.3318 49.6317C22.9984 49.7527 23.6914 49.7021 24.3251 49.4862C24.4452 49.4452 24.5746 49.4288 24.7033 49.438C24.8319 49.4473 24.9564 49.482 25.0671 49.5395C25.1777 49.597 25.2716 49.6757 25.3415 49.7696C25.4114 49.8635 25.4553 49.97 25.47 50.081C25.589 51.0492 26.134 51.9407 26.9922 52.5707C27.8504 53.2008 28.9559 53.5211 30.0797 53.4654C31.2035 53.4096 32.2594 52.9821 33.0287 52.2712C33.7979 51.5604 34.2216 50.6209 34.2118 49.6473C34.2118 49.4542 34.3005 49.2689 34.4584 49.1324C34.6162 48.9958 34.8304 48.9191 35.0536 48.9191C35.2769 48.9191 35.491 48.9958 35.6489 49.1324C35.8068 49.2689 35.8954 49.4542 35.8954 49.6473C35.8936 51.039 35.2535 52.3733 34.1156 53.3572C32.9777 54.3412 31.4349 54.8944 29.8259 54.8955Z" fill="#005CD4"/>
<path id="Vector_5" d="M20.3216 32.6571C20.1172 32.6567 19.9199 32.592 19.7665 32.4751C18.6532 31.6304 18.0403 30.5045 18.0403 29.3044C18.0403 26.8391 20.671 24.833 23.9041 24.833C27.1372 24.833 29.7674 26.8391 29.7674 29.3044C29.7674 29.7187 29.6931 30.1304 29.547 30.525C29.5133 30.616 29.4592 30.7005 29.3878 30.7735C29.3163 30.8465 29.229 30.9066 29.1307 30.9504C29.0325 30.9942 28.9252 31.0208 28.815 31.0288C28.7048 31.0367 28.5939 31.0258 28.4886 30.9967C28.3833 30.9675 28.2857 30.9207 28.2013 30.859C28.1169 30.7972 28.0474 30.7217 27.9968 30.6366C27.9461 30.5516 27.9153 30.4588 27.9062 30.3635C27.897 30.2682 27.9096 30.1723 27.9433 30.0812C28.0363 29.8301 28.0837 29.5681 28.0838 29.3044C28.0838 27.6419 26.2086 26.2893 23.9041 26.2893C21.5996 26.2893 19.7239 27.6419 19.7239 29.3044C19.7239 30.078 20.1333 30.8162 20.8767 31.3801C21.0048 31.4778 21.0956 31.607 21.1368 31.7504C21.1781 31.8938 21.1679 32.0447 21.1077 32.183C21.0474 32.3212 20.94 32.4404 20.7996 32.5246C20.6592 32.6088 20.4925 32.6541 20.3216 32.6544V32.6571Z" fill="#005CD4"/>
<path id="Vector_6" d="M40.1765 54.8956C38.5675 54.8946 37.0247 54.3413 35.8868 53.3574C34.7489 52.3734 34.1087 51.0392 34.1069 49.6474L34.1595 21.2587C34.1595 21.2432 34.1595 21.2282 34.1595 21.2131C34.241 20.1176 34.7856 19.0862 35.6895 18.3155C36.5934 17.5448 37.7934 17.0886 39.0611 17.0339C40.3287 16.9792 41.5754 17.3297 42.5635 18.0188C43.5516 18.7078 44.2121 19.6872 44.4193 20.7703C44.4523 20.9596 44.3979 21.1525 44.2678 21.3073C44.1376 21.4621 43.9423 21.5664 43.724 21.5975C43.5056 21.6287 43.2819 21.5842 43.1012 21.4738C42.9205 21.3634 42.7973 21.1958 42.7582 21.0074C42.6173 20.2802 42.1733 19.6228 41.51 19.1596C40.8467 18.6964 40.0102 18.4595 39.1586 18.4936C38.3071 18.5277 37.4995 18.8306 36.8886 19.3448C36.2776 19.8591 35.9057 20.5492 35.8432 21.2846L35.7906 49.6483C35.79 50.6167 36.2179 51.5485 36.9863 52.2527C37.7548 52.9569 38.8056 53.38 39.9233 53.4354C41.0409 53.4907 42.1407 53.1741 42.9971 52.5504C43.8534 51.9267 44.4015 51.0432 44.5287 50.0811C44.5434 49.9702 44.5873 49.8636 44.6572 49.7697C44.7271 49.6758 44.821 49.5971 44.9316 49.5396C45.0423 49.4821 45.1668 49.4474 45.2954 49.4381C45.4241 49.4289 45.5535 49.4454 45.6736 49.4863C46.3073 49.7024 47.0004 49.7532 47.6671 49.6323C48.3338 49.5114 48.945 49.2242 49.425 48.8061C49.905 48.3879 50.2328 47.8573 50.3679 47.2798C50.5031 46.7023 50.4395 46.1031 50.1852 45.5565C50.1121 45.399 50.1048 45.2244 50.1646 45.0628C50.2245 44.9012 50.3477 44.7627 50.513 44.6713C51.6248 44.0565 52.3151 42.8919 52.3151 41.6313C52.3151 40.7666 51.992 39.9346 51.4054 39.2934C51.3356 39.2185 51.2838 39.1324 51.2527 39.0401C51.2217 38.9478 51.212 38.8511 51.2244 38.7556C51.2368 38.66 51.2709 38.5676 51.3248 38.4835C51.3788 38.3994 51.4514 38.3254 51.5385 38.2657C51.6257 38.2061 51.7256 38.1619 51.8326 38.1358C51.9396 38.1098 52.0515 38.1023 52.1618 38.1138C52.2722 38.1253 52.3788 38.1556 52.4755 38.2029C52.5722 38.2503 52.6572 38.3137 52.7254 38.3896C53.5467 39.287 53.9987 40.4375 53.9987 41.6313C53.9987 43.1786 53.2295 44.6349 51.9552 45.5579C52.1734 46.2857 52.176 47.0493 51.9626 47.7782C51.7493 48.507 51.327 49.1776 50.7346 49.7279C50.1423 50.2782 49.3991 50.6904 48.5738 50.9264C47.7485 51.1624 46.8678 51.2147 46.0129 51.0782C45.6537 52.1776 44.8892 53.1455 43.8357 53.8345C42.7821 54.5236 41.4973 54.8962 40.1765 54.8956Z" fill="#005CD4"/>
<path id="Vector_7" d="M48.1259 26.6108C47.991 26.6105 47.8581 26.582 47.7384 26.528C47.6188 26.4739 47.516 26.3957 47.4386 26.3001C47.3613 26.2044 47.3116 26.094 47.2939 25.9783C47.2761 25.8626 47.2908 25.7448 47.3367 25.6351C47.6737 24.89 47.6547 24.0597 47.284 23.3268C46.9132 22.5939 46.2211 22.0184 45.3598 21.7269C44.4984 21.4354 43.5385 21.4518 42.6912 21.7725C41.8439 22.0932 41.1785 22.6919 40.8415 23.4369C40.7522 23.6117 40.5871 23.7491 40.3817 23.8195C40.1763 23.8899 39.9472 23.8876 39.7437 23.8132C39.5403 23.7388 39.3788 23.5982 39.2941 23.4217C39.2094 23.2452 39.2083 23.047 39.291 22.8699C39.8115 21.7911 40.7995 20.9316 42.0436 20.4751C43.2877 20.0187 44.6889 20.0018 45.9473 20.4279C47.2057 20.854 48.2212 21.6893 48.7764 22.755C49.3315 23.8207 49.3823 25.0321 48.9178 26.1298C48.859 26.2706 48.7514 26.3924 48.6097 26.4785C48.468 26.5646 48.2991 26.6108 48.1259 26.6108Z" fill="#005CD4"/>
<path id="Vector_8" d="M52.0658 39.5692C51.9077 39.5691 51.7528 39.5304 51.6189 39.4577C51.485 39.3849 51.3774 39.281 51.3086 39.1579C51.2398 39.0347 51.2125 38.8973 51.2298 38.7613C51.2472 38.6254 51.3084 38.4964 51.4065 38.3891C51.9948 37.7479 52.3162 36.9187 52.3162 36.0513C52.3162 34.3897 51.1298 32.9566 49.4945 32.6403C49.2766 32.5983 49.0868 32.4832 48.967 32.3203C48.8471 32.1573 48.8071 31.9598 48.8555 31.7713C48.904 31.5827 49.0371 31.4186 49.2255 31.3149C49.4139 31.2113 49.6422 31.1766 49.8602 31.2186C52.2589 31.6805 53.9999 33.713 53.9999 36.0513C53.9999 37.2445 53.5479 38.3955 52.7266 39.293C52.6477 39.3792 52.5473 39.4488 52.4328 39.4967C52.3184 39.5445 52.1929 39.5693 52.0658 39.5692Z" fill="#005CD4"/>
<path id="Vector_9" d="M49.6807 32.6583C49.5098 32.658 49.3431 32.6127 49.2027 32.5285C49.0623 32.4443 48.9549 32.3251 48.8946 32.1869C48.8344 32.0486 48.8242 31.8977 48.8655 31.7543C48.9067 31.6109 48.9974 31.4817 49.1256 31.384C49.869 30.8201 50.2783 30.0829 50.2783 29.3083C50.2783 27.6458 48.4032 26.2932 46.0987 26.2932C43.7942 26.2932 41.9185 27.6458 41.9185 29.3083C41.9186 29.572 41.966 29.834 42.059 30.0851C42.0927 30.1762 42.1053 30.2721 42.0961 30.3674C42.0869 30.4627 42.0561 30.5555 42.0055 30.6406C41.9549 30.7256 41.8854 30.8011 41.801 30.8629C41.7166 30.9247 41.6189 30.9714 41.5136 31.0006C41.4083 31.0297 41.2974 31.0406 41.1873 31.0327C41.0771 31.0247 40.9698 30.9981 40.8715 30.9543C40.7733 30.9105 40.6859 30.8504 40.6145 30.7774C40.5431 30.7044 40.489 30.6199 40.4553 30.5289C40.3092 30.1343 40.2348 29.7226 40.2349 29.3083C40.2349 26.843 42.8656 24.8369 46.0987 24.8369C49.3318 24.8369 51.962 26.843 51.962 29.3083C51.962 30.5084 51.349 31.6343 50.2357 32.479C50.0819 32.595 49.8847 32.6587 49.6807 32.6583Z" fill="#005CD4"/>
<path id="Vector_10" d="M31.7059 37.69C29.8786 37.6881 28.1268 37.0593 26.8347 35.9417C25.5426 34.824 24.8157 33.3087 24.8135 31.7282C24.8135 31.535 24.9022 31.3498 25.06 31.2133C25.2179 31.0767 25.432 31 25.6553 31C25.8786 31 26.0927 31.0767 26.2506 31.2133C26.4084 31.3498 26.4971 31.535 26.4971 31.7282C26.4989 32.9226 27.0483 34.0677 28.0247 34.9123C29.0012 35.7569 30.325 36.2321 31.7059 36.2337C31.9292 36.2337 32.1433 36.3104 32.3012 36.4469C32.459 36.5835 32.5477 36.7687 32.5477 36.9618C32.5477 37.1549 32.459 37.3402 32.3012 37.4767C32.1433 37.6133 31.9292 37.69 31.7059 37.69Z" fill="#005CD4"/>
<path id="Vector_11" d="M22.418 40.8502C22.1947 40.8502 21.9806 40.7735 21.8227 40.637C21.6649 40.5004 21.5762 40.3152 21.5762 40.1221C21.5762 39.9289 21.6649 39.7437 21.8227 39.6072C21.9806 39.4706 22.1947 39.3939 22.418 39.3939C23.5769 39.3928 24.688 38.9941 25.5075 38.2853C26.327 37.5764 26.7879 36.6154 26.7892 35.6129C26.7892 35.4198 26.8779 35.2346 27.0357 35.098C27.1936 34.9615 27.4077 34.8848 27.631 34.8848C27.8543 34.8848 28.0684 34.9615 28.2262 35.098C28.3841 35.2346 28.4728 35.4198 28.4728 35.6129C28.4711 37.0015 27.8327 38.3328 26.6975 39.3147C25.5624 40.2965 24.0233 40.8488 22.418 40.8502Z" fill="#005CD4"/>
<path id="Vector_12" d="M25.6546 47.2247C25.4313 47.2247 25.2172 47.148 25.0593 47.0115C24.9014 46.8749 24.8127 46.6897 24.8127 46.4966C24.8146 45.1631 25.4278 43.8846 26.5179 42.9417C27.608 41.9988 29.086 41.4684 30.6276 41.4668C30.8509 41.4668 31.065 41.5435 31.2229 41.6801C31.3808 41.8166 31.4695 42.0018 31.4695 42.195C31.4695 42.3881 31.3808 42.5733 31.2229 42.7098C31.065 42.8464 30.8509 42.9231 30.6276 42.9231C29.5323 42.9241 28.4822 43.3009 27.7076 43.9708C26.9331 44.6408 26.4975 45.5491 26.4964 46.4966C26.4964 46.6897 26.4077 46.8749 26.2498 47.0115C26.092 47.148 25.8778 47.2247 25.6546 47.2247Z" fill="#005CD4"/>
<path id="Vector_13" d="M38.2962 37.69C38.0729 37.69 37.8588 37.6133 37.7009 37.4767C37.543 37.3402 37.4543 37.1549 37.4543 36.9618C37.4543 36.7687 37.543 36.5835 37.7009 36.4469C37.8588 36.3104 38.0729 36.2337 38.2962 36.2337C39.6771 36.2321 41.0009 35.7569 41.9773 34.9123C42.9538 34.0677 43.5031 32.9226 43.505 31.7282C43.505 31.535 43.5936 31.3498 43.7515 31.2133C43.9094 31.0767 44.1235 31 44.3468 31C44.57 31 44.7842 31.0767 44.942 31.2133C45.0999 31.3498 45.1886 31.535 45.1886 31.7282C45.1864 33.3087 44.4595 34.824 43.1674 35.9417C41.8753 37.0593 40.1235 37.6881 38.2962 37.69Z" fill="#005CD4"/>
<path id="Vector_14" d="M47.5841 40.8502C45.9788 40.8488 44.4397 40.2965 43.3046 39.3147C42.1694 38.3328 41.531 37.0015 41.5293 35.6129C41.5293 35.4198 41.618 35.2346 41.7759 35.098C41.9337 34.9615 42.1479 34.8848 42.3711 34.8848C42.5944 34.8848 42.8085 34.9615 42.9664 35.098C43.1243 35.2346 43.2129 35.4198 43.2129 35.6129C43.2142 36.6154 43.6751 37.5764 44.4946 38.2853C45.3141 38.9941 46.4252 39.3928 47.5841 39.3939C47.8074 39.3939 48.0215 39.4706 48.1794 39.6072C48.3372 39.7437 48.4259 39.9289 48.4259 40.1221C48.4259 40.3152 48.3372 40.5004 48.1794 40.637C48.0215 40.7735 47.8074 40.8502 47.5841 40.8502Z" fill="#005CD4"/>
<path id="Vector_15" d="M44.3479 47.2247C44.1246 47.2247 43.9105 47.148 43.7526 47.0115C43.5947 46.8749 43.506 46.6897 43.506 46.4966C43.5049 45.5491 43.0693 44.6408 42.2948 43.9708C41.5203 43.3009 40.4701 42.9241 39.3748 42.9231C39.1515 42.9231 38.9374 42.8464 38.7795 42.7098C38.6217 42.5733 38.533 42.3881 38.533 42.195C38.533 42.0018 38.6217 41.8166 38.7795 41.6801C38.9374 41.5435 39.1515 41.4668 39.3748 41.4668C40.9164 41.4684 42.3944 41.9988 43.4845 42.9417C44.5746 43.8846 45.1879 45.1631 45.1897 46.4966C45.1897 46.6897 45.101 46.8749 44.9431 47.0115C44.7852 47.148 44.5711 47.2247 44.3479 47.2247Z" fill="#005CD4"/>
<path id="Vector_16" d="M27.6309 50.2837C27.4076 50.2837 27.1935 50.207 27.0356 50.0704C26.8778 49.9338 26.7891 49.7486 26.7891 49.5555C26.7891 49.3624 26.8778 49.1772 27.0356 49.0406C27.1935 48.9041 27.4076 48.8274 27.6309 48.8274C28.3449 48.8265 29.0294 48.5808 29.5343 48.1441C30.0392 47.7074 30.3232 47.1153 30.3242 46.4977C30.3242 46.3046 30.4129 46.1194 30.5708 45.9828C30.7286 45.8462 30.9428 45.7695 31.166 45.7695C31.3893 45.7695 31.6034 45.8462 31.7613 45.9828C31.9192 46.1194 32.0078 46.3046 32.0078 46.4977C32.0065 47.5014 31.5449 48.4637 30.7243 49.1735C29.9038 49.8832 28.7913 50.2825 27.6309 50.2837Z" fill="#005CD4"/>
<path id="Vector_17" d="M42.3706 50.2837C41.2102 50.2825 40.0977 49.8832 39.2772 49.1735C38.4566 48.4637 37.995 47.5014 37.9937 46.4977C37.9937 46.3046 38.0823 46.1194 38.2402 45.9828C38.3981 45.8462 38.6122 45.7695 38.8355 45.7695C39.0587 45.7695 39.2729 45.8462 39.4307 45.9828C39.5886 46.1194 39.6773 46.3046 39.6773 46.4977C39.6783 47.1153 39.9623 47.7074 40.4672 48.1441C40.9721 48.5808 41.6566 48.8265 42.3706 48.8274C42.5939 48.8274 42.808 48.9041 42.9659 49.0406C43.1237 49.1772 43.2124 49.3624 43.2124 49.5555C43.2124 49.7486 43.1237 49.9338 42.9659 50.0704C42.808 50.207 42.5939 50.2837 42.3706 50.2837Z" fill="#005CD4"/>
</g>
</g>
</svg>
