<svg width="70" height="71" viewBox="0 0 70 71" fill="none" xmlns="http://www.w3.org/2000/svg">
<g id="Group 39626">
<circle id="Ellipse 1" cx="35.0001" cy="35.5001" r="35.0001" fill="#EFF6FF"/>
<path id="Vector" d="M29.6861 47.3911C29.8987 47.618 29.8836 47.9697 29.6476 48.1772C26.4801 50.9702 23.1319 53.1228 19.6917 54.5785C19.3736 54.7131 19.0622 54.8379 18.7391 54.9611C18.6704 54.987 18.6001 55 18.5298 55C18.3724 55 18.2201 54.9384 18.1096 54.8217L14.1536 50.6963C14.0163 50.5537 13.9678 50.3527 14.0213 50.1663C14.0766 49.9799 14.2272 49.834 14.4214 49.7821C15.3154 49.5438 16.2195 49.231 17.1068 48.8549C19.9394 47.657 22.7319 45.8431 25.4105 43.4636C25.6449 43.2561 26.0081 43.2707 26.2224 43.4977C26.4367 43.7246 26.4216 44.0763 26.1873 44.2838C23.4149 46.7445 20.5137 48.6265 17.5655 49.8714C16.9227 50.1437 16.2714 50.3852 15.6202 50.5911L18.6805 53.7828C18.8646 53.7099 19.0454 53.6353 19.2296 53.5575C22.5544 52.1521 25.7971 50.0643 28.8726 47.3541C29.1087 47.1482 29.4718 47.1641 29.6861 47.3911ZM47.9611 50.1646C48.0164 50.351 47.9662 50.552 47.8289 50.6946L43.8729 54.82C43.7624 54.9351 43.6084 54.9983 43.4527 54.9983C43.3824 54.9983 43.312 54.9853 43.2434 54.9594C42.9002 54.8297 42.5872 54.7033 42.2891 54.5768C38.231 52.8602 34.183 50.0835 30.582 46.5463C29.3432 45.3306 28.1462 44.0144 27.0228 42.6317C23.8035 38.6652 21.2387 34.1929 19.6015 29.6996C19.111 28.3526 18.7008 26.9861 18.3811 25.6374C18.3459 25.4899 18.3744 25.3343 18.4614 25.2078C19.9129 23.0714 21.3644 20.9332 22.8158 18.7953L22.9531 18.5927C23.02 18.4922 23.1171 18.4209 23.2276 18.3803V18.3787C25.7422 17.4418 28.3522 16.9766 30.9956 17.0009C33.6508 16.9766 36.2676 17.4418 38.7654 18.3787C38.8758 18.4209 38.9713 18.4938 39.0382 18.5911C39.8 19.7128 40.5617 20.8345 41.3218 21.9562C42.055 23.0374 42.79 24.1186 43.5232 25.1982C43.6086 25.3246 43.6388 25.4802 43.6036 25.6294C43.4446 26.2956 43.2721 26.9424 43.0896 27.5567C43.0026 27.8517 42.6845 28.0219 42.3781 27.936C42.0734 27.8517 41.8976 27.5421 41.9864 27.2471C42.1421 26.7235 42.2911 26.174 42.43 25.6083C41.742 24.5935 41.0522 23.5788 40.3642 22.5641C39.9272 21.9206 39.4902 21.277 39.0533 20.6319C38.9512 21.9044 38.7402 23.2158 38.4221 24.545C37.4562 28.6087 35.5125 32.836 32.797 36.772C32.6865 36.9325 32.5041 37.02 32.3182 37.02C32.2077 37.02 32.0972 36.9892 32.0001 36.926C31.7373 36.7558 31.6653 36.4105 31.8411 36.1544C34.369 32.4894 36.2087 28.57 37.1799 24.788C35.2228 24.1866 33.2072 23.8819 31.1815 23.8819C31.1212 23.8819 31.0626 23.8819 31.0024 23.8835H30.9923C28.8997 23.8673 26.822 24.1704 24.8032 24.7912C25.9383 29.192 28.2871 33.8442 31.453 37.9487C32.3956 39.1709 33.4068 40.3412 34.4631 41.4321C35.029 40.714 35.5798 39.9733 36.1021 39.2228C36.2796 38.9683 36.6362 38.9018 36.899 39.072C37.1618 39.2438 37.2322 39.5891 37.0547 39.8436C36.4872 40.6589 35.8861 41.4629 35.2701 42.2394C38.2818 45.1782 41.5933 47.4589 44.8762 48.8482C45.7719 49.2275 46.6759 49.5387 47.5632 49.777C47.7541 49.8321 47.9064 49.978 47.9617 50.1644L47.9611 50.1646ZM30.9902 18.1132C28.6247 18.0937 26.2776 18.486 24.0125 19.2819C24.0159 19.4683 24.0209 19.6531 24.0293 19.8346C24.0895 21.0812 24.2637 22.3812 24.5466 23.7071C26.6493 23.0701 28.8173 22.7556 30.9971 22.7751C33.1718 22.7556 35.3348 23.0701 37.4357 23.7055C37.7203 22.3828 37.8944 21.0828 37.9513 19.8346C37.953 19.8022 37.9563 19.6887 37.9597 19.5526C37.963 19.465 37.9647 19.3694 37.968 19.2786C35.7213 18.486 33.3792 18.0969 31.0002 18.1148C30.9968 18.1131 30.9936 18.1132 30.9902 18.1132ZM46.3604 50.5911C45.7108 50.3853 45.0596 50.1454 44.4134 49.8714C40.8675 48.3704 37.2998 45.8822 34.094 42.6742C32.8367 41.418 31.638 40.0531 30.5298 38.6169C27.153 34.2386 24.6771 29.2428 23.5585 24.5515C23.2438 23.2256 23.0328 21.9158 22.929 20.6515C21.804 22.3081 20.679 23.9648 19.5556 25.6216C19.857 26.8535 20.237 28.1001 20.684 29.332C22.2794 33.712 24.7839 38.0737 27.9261 41.9462C29.021 43.2965 30.1895 44.5819 31.4 45.7668C34.8989 49.2049 38.823 51.8988 42.7505 53.5604C42.9279 53.6366 43.1087 53.7111 43.2996 53.7857L46.3604 50.5911ZM56 31.0536V38.6106C56 38.6576 55.9933 38.7062 55.9816 38.7516C54.7896 43.1573 51.8599 46.1285 47.0264 47.8373C46.9628 47.86 46.8958 47.8714 46.8289 47.8714C46.7619 47.8714 46.6949 47.86 46.6313 47.8373C41.7999 46.1288 38.8719 43.1561 37.6779 38.7516C37.6661 38.7062 37.6594 38.6576 37.6594 38.6106V31.0536C37.6594 30.8283 37.8001 30.6257 38.016 30.5397L46.6112 27.1227C46.7502 27.0676 46.9075 27.0676 47.0481 27.1227L55.645 30.5397C55.8593 30.624 56 30.8266 56 31.0536ZM54.8515 31.4264L46.829 28.2363L38.8081 31.4264V38.5377C39.8929 42.467 42.518 45.1465 46.829 46.7222C51.14 45.1449 53.7651 42.4671 54.8515 38.5361V31.4264ZM45.2454 32.1996H48.4145C48.7309 32.1996 48.9887 32.4492 48.9887 32.7556V35.3832H51.7025C52.0189 35.3832 52.2767 35.6328 52.2767 35.9391V39.0076C52.2767 39.314 52.0189 39.5636 51.7025 39.5636H48.9887V42.1928C48.9887 42.4992 48.7309 42.7488 48.4145 42.7488H45.2454C44.9289 42.7488 44.6711 42.4992 44.6711 42.1928V39.5636H41.9557C41.6393 39.5636 41.3815 39.314 41.3815 39.0076V35.9391C41.3815 35.6328 41.6393 35.3832 41.9557 35.3832H44.6711V32.7556C44.6711 32.4476 44.9273 32.1996 45.2454 32.1996ZM45.2454 36.4954H42.5299V38.4519H45.2454C45.5618 38.4519 45.8196 38.7015 45.8196 39.0078V41.637H47.8402V39.0078C47.8402 38.7015 48.098 38.4519 48.4144 38.4519H51.1282V36.4954H48.4144C48.098 36.4954 47.8402 36.2457 47.8402 35.9394V33.3118H45.8196V35.9394C45.8196 36.2458 45.5618 36.4954 45.2454 36.4954Z" fill="#0048A5"/>
</g>
</svg>
