<svg width="70" height="71" viewBox="0 0 70 71" fill="none" xmlns="http://www.w3.org/2000/svg">
<g id="Group 39626">
<circle id="Ellipse 1" cx="35.0001" cy="35.5001" r="35.0001" fill="#EFF6FF"/>
<path id="Vector" d="M18.7522 30.1637C18.6452 30.384 18.422 30.5123 18.1877 30.5123C18.0973 30.5123 18.0069 30.4942 17.9202 30.4527L14.7841 28.9952C14.4723 28.8507 14.3395 28.4858 14.4871 28.1806C14.6347 27.8754 15.0073 27.7471 15.3191 27.8898L18.4552 29.3473C18.767 29.4918 18.8998 29.8567 18.7522 30.1619L18.7522 30.1637ZM17.0329 33.0571L13.5739 33.3298C13.2308 33.3569 12.9744 33.6513 13.002 33.9873C13.0279 34.3069 13.3009 34.5489 13.6237 34.5489C13.6403 34.5489 13.6569 34.5489 13.6735 34.5471L17.1325 34.2744C17.4757 34.2473 17.7321 33.9529 17.7044 33.617C17.6767 33.281 17.3779 33.0318 17.0329 33.0571ZM19.955 27.032C20.0768 27.2036 20.2705 27.2957 20.4697 27.2957C20.5915 27.2957 20.7151 27.2614 20.8239 27.1873C21.108 26.9959 21.18 26.6148 20.9826 26.3366L19.0105 23.539C18.8149 23.2608 18.4257 23.1904 18.1416 23.3836C17.8575 23.5751 17.7856 23.9562 17.983 24.2343L19.955 27.032ZM20.7797 35.2968C20.3037 32.8387 21.2667 30.5122 23.3531 29.0692L43.5704 15.1112C43.8527 14.9162 43.9191 14.5351 43.7199 14.2587C43.5206 13.9824 43.1314 13.9174 42.8491 14.1124L22.6356 28.0704C20.1377 29.7952 18.9847 32.5821 19.5548 35.5223L23.8089 57.4991C23.8661 57.7917 24.128 57.9958 24.4214 57.9958C24.4601 57.9958 24.4989 57.9922 24.5376 57.9849C24.877 57.9217 25.0984 57.602 25.0357 57.2715L20.7816 35.2947L20.7797 35.2968ZM37.5357 48.7507C37.6962 46.0867 37.8456 43.5709 36.4694 39.8104C36.2038 39.0862 36.4676 38.3149 37.1262 37.8941L51.5341 28.663C51.8219 28.4788 51.903 28.0995 51.7149 27.8177C51.5267 27.536 51.1393 27.4565 50.8515 27.6407L36.4436 36.8719C35.3109 37.5979 34.8386 38.976 35.2961 40.2241C36.5875 43.7478 36.4436 46.1447 36.2923 48.6803C36.1429 51.1637 35.9898 53.7321 37.0413 57.5485C37.1169 57.8212 37.3678 58 37.6427 58C37.6962 58 37.7515 57.9928 37.805 57.9783C38.1371 57.8898 38.3345 57.5557 38.2441 57.2288C37.2442 53.6039 37.3918 51.1366 37.5357 48.7507ZM38.4046 30.2145L48.3553 23.2212C48.6357 23.0243 48.6984 22.6432 48.4991 22.3687C48.2981 22.0941 47.9088 22.0327 47.6284 22.2278L37.6777 29.2211C35.9621 30.4258 34.9235 32.0729 34.5895 34.1157C34.3995 35.2752 33.6118 35.9633 32.9569 35.9633H32.9495C32.0935 35.9561 31.3962 34.8164 31.1268 32.9887C31.1268 32.9832 31.125 32.9796 31.125 32.9742C30.8981 31.6521 29.972 30.6696 28.6493 30.3445C28.5367 30.3174 28.4242 30.2921 28.3135 30.2686C28.1456 30.2325 27.987 30.1982 27.8652 30.1567C27.8044 30.1368 27.6605 30.0772 27.6512 29.9761C27.6254 29.7395 28.0073 29.5462 28.2379 29.4523C28.9777 29.1489 30.0846 29.064 30.9719 28.9953C31.4866 28.9556 31.9312 28.9213 32.2522 28.849C33.2041 28.6359 34.1191 28.2241 34.9714 27.6245L46.2746 19.6811C46.555 19.4842 46.6178 19.1031 46.4185 18.8285C46.2174 18.554 45.8282 18.4926 45.5478 18.6877L34.2445 26.6311C33.5176 27.1423 32.776 27.4782 31.9754 27.657C31.7448 27.7094 31.3224 27.7419 30.8759 27.7762C29.8982 27.8521 28.6825 27.946 27.7564 28.3253C26.4779 28.8491 26.3654 29.6636 26.4115 30.1025C26.4705 30.6588 26.8635 31.1122 27.463 31.3144C27.6531 31.3777 27.856 31.421 28.0497 31.4625C28.1475 31.4842 28.2471 31.5041 28.3485 31.5294C29.1879 31.7353 29.7525 32.3331 29.8963 33.1693C30.4294 36.7762 32.206 37.1789 32.9439 37.1843H32.9605C34.3275 37.1843 35.5561 35.9508 35.8255 34.3072C36.1059 32.5986 36.9748 31.2205 38.41 30.2127L38.4046 30.2145ZM33.7908 38.1741C33.2964 37.6792 31.8796 36.7689 29.1142 38.548C27.037 36.9965 24.9487 37.2422 23.9689 38.3258C23.0815 39.3102 23.0133 41.0259 24.8618 42.6442C26.0295 43.6647 26.7047 44.8965 26.9298 46.4136L28.5698 57.4762C28.6196 57.8103 28.9351 58.0415 29.2764 57.9927C29.6177 57.944 29.8538 57.6351 29.804 57.301L28.1639 46.2384C27.8946 44.4268 27.0866 42.953 25.6919 41.7339C24.644 40.8182 24.3268 39.7743 24.9023 39.1367C25.5406 38.4287 27.0792 38.4107 28.6694 39.7725C28.8889 39.9585 29.2099 39.9748 29.4442 39.8086C30.9754 38.7304 32.3 38.4323 32.8977 39.0302C33.357 39.4889 33.3995 40.5274 32.6763 41.4684C31.4052 43.121 30.9145 44.9957 31.2189 47.0422L32.7648 57.476C32.811 57.7794 33.0766 57.9998 33.381 57.9998C33.4105 57.9998 33.4419 57.998 33.4714 57.9925C33.8127 57.9438 34.0488 57.6349 33.999 57.3008L32.4531 46.867C32.2004 45.1548 32.6099 43.5871 33.6725 42.2036C34.7001 40.8689 34.7498 39.1368 33.7887 38.176L33.7908 38.1741ZM24.1055 31.412C24.5778 31.1031 25.598 30.7166 27.1217 31.6052C28.4315 32.3692 29.6325 33.8304 29.3927 35.1434C29.2765 35.7828 28.7857 36.6064 27.1125 36.9098L27.0517 36.9206C26.548 37.0145 25.9835 37.1211 25.4301 37.1211C24.8914 37.1211 24.362 37.02 23.9137 36.7093C23.3805 36.3391 23.0466 35.7286 22.923 34.8942C22.6979 33.3969 23.1628 32.0297 24.1055 31.412ZM24.159 34.7172C24.2328 35.2084 24.3933 35.5444 24.6387 35.7141C25.1109 36.0428 26.0186 35.8731 26.8174 35.7214L26.8801 35.7087C26.8801 35.7087 26.8838 35.7087 26.8838 35.7069C27.4206 35.6094 28.0792 35.3962 28.164 34.9267C28.2803 34.2945 27.5091 33.2542 26.4834 32.6545C26.1532 32.4631 25.7326 32.2753 25.3396 32.2753C25.1496 32.2753 24.9652 32.3186 24.7991 32.427C24.2715 32.7719 24.0077 33.7129 24.159 34.7153L24.159 34.7172ZM57 42.7781C57 47.3042 53.2385 50.9888 48.6135 50.9888C43.9904 50.9888 40.227 47.3061 40.227 42.7781C40.227 38.2519 43.9885 34.5674 48.6135 34.5674C53.2366 34.5674 57 38.25 57 42.7781ZM55.7511 42.7781C55.7511 38.9238 52.5485 35.7903 48.6137 35.7903C44.6769 35.7903 41.4763 38.9257 41.4763 42.7781C41.4763 46.6323 44.6789 49.7658 48.6137 49.7658C52.5505 49.7658 55.7511 46.6304 55.7511 42.7781ZM53.3934 41.2808V44.2736C53.3934 44.6113 53.113 44.884 52.7699 44.884H50.7683V46.8437C50.7683 47.1814 50.4879 47.4541 50.1448 47.4541H47.0879C46.7429 47.4541 46.4644 47.1796 46.4644 46.8437V44.884H44.4628C44.1178 44.884 43.8392 44.6095 43.8392 44.2736V41.2808C43.8392 40.943 44.1196 40.6703 44.4628 40.6703H46.4644V38.7107C46.4644 38.3729 46.7448 38.1002 47.0879 38.1002H50.1448C50.4897 38.1002 50.7683 38.3747 50.7683 38.7107V40.6703H52.7699C53.1149 40.6703 53.3934 40.9449 53.3934 41.2808ZM52.1445 41.8913H50.1429C49.7979 41.8913 49.5194 41.6167 49.5194 41.2808V39.3211H47.7097V41.2808C47.7097 41.6185 47.4292 41.8913 47.0861 41.8913H45.0845V43.663H47.0861C47.4311 43.663 47.7097 43.9376 47.7097 44.2735V46.2332H49.5194V44.2735C49.5194 43.9358 49.7998 43.663 50.1429 43.663H52.1445V41.8913Z" fill="#0048A5"/>
</g>
</svg>
