<svg width="206" height="97" viewBox="0 0 206 97" fill="none" xmlns="http://www.w3.org/2000/svg">
<g id="Clip path group" opacity="0.15">
<mask id="mask0_2002_12477" style="mask-type:luminance" maskUnits="userSpaceOnUse" x="0" y="0" width="228" height="131">
<g id="SVGID_00000108288960451175808680000006753634942514315662_">
<path id="Vector" d="M227.75 0H0V130.143H227.75V0Z" fill="white"/>
</g>
</mask>
<g mask="url(#mask0_2002_12477)">
<g id="Group">
<path id="Vector_2" opacity="0.88" d="M185.827 96.0029V106.037H175.793V116.018H185.827V126.052H195.809V116.018H205.842V106.037H195.809V96.0029H185.827Z" fill="#9AC4FF"/>
<path id="Vector_3" opacity="0.25" d="M176.627 31.2295V38.6386H169.218V46.0088H176.627V53.4175H183.998V46.0088H191.406V38.6386H183.998V31.2295H176.627Z" fill="#9AC4FF"/>
<path id="Vector_4" opacity="0.98" d="M196.834 -1.93164V6.28047H188.622V14.4501H196.834V22.6622H205.004V14.4501H213.216V6.28047H205.004V-1.93164H196.834Z" fill="#9AC4FF"/>
<path id="Vector_5" opacity="0.96" d="M147.128 33.6289V36.1387H144.618V38.6353H147.128V41.1451H149.625V38.6353H152.135V36.1387H149.625V33.6289H147.128Z" fill="#9AC4FF"/>
<path id="Vector_6" opacity="0.21" d="M204.825 82.2119V87.7037H199.334V93.167H204.825V98.6587H210.288V93.167H215.78V87.7037H210.288V82.2119H204.825Z" fill="#9AC4FF"/>
<path id="Vector_7" opacity="0.59" d="M199.972 28.5342V35.3658H193.141V42.1617H199.972V48.9933H206.768V42.1617H213.6V35.3658H206.768V28.5342H199.972Z" fill="#9AC4FF"/>
<path id="Vector_8" opacity="0.51" d="M129.232 6.54297V9.06991H126.705V11.5842H129.232V14.1111H131.746V11.5842H134.273V9.06991H131.746V6.54297H129.232Z" fill="#9AC4FF"/>
<path id="Vector_9" opacity="0.31" d="M144.54 -8.58008V-5.44671H141.406V-2.32915H144.54V0.804217H147.657V-2.32915H150.791V-5.44671H147.657V-8.58008H144.54Z" fill="#9AC4FF"/>
<path id="Vector_10" opacity="0.66" d="M123.109 49.7842V59.3664H113.527V68.8994H123.109V78.482H132.642V68.8994H142.225V59.3664H132.642V49.7842H123.109Z" fill="#9AC4FF"/>
<path id="Vector_11" opacity="0.53" d="M162.347 1.75977V11.3124H152.794V20.8161H162.347V30.3688H171.851V20.8161H181.403V11.3124H171.851V1.75977H162.347Z" fill="#9AC4FF"/>
<path id="Vector_12" opacity="0.89" d="M169.274 43.2725V58.0701H154.477V72.7907H169.274V87.5883H183.995V72.7907H198.793V58.0701H183.995V43.2725H169.274Z" fill="#9AC4FF"/>
</g>
</g>
</g>
</svg>
