<svg width="172" height="96" viewBox="0 0 172 96" fill="none" xmlns="http://www.w3.org/2000/svg">
<g id="Clip path group" opacity="0.15">
<mask id="mask0_2002_12511" style="mask-type:luminance" maskUnits="userSpaceOnUse" x="-45" y="-28" width="217" height="124">
<g id="SVGID_00000108288960451175808680000006753634942514315662_">
<path id="Vector" d="M-45.0001 -28H172V96H-45.0001V-28Z" fill="white"/>
</g>
</mask>
<g mask="url(#mask0_2002_12511)">
<g id="Group">
<path id="Vector_2" opacity="0.58" d="M-1.4387 18.6191V21.897H1.83911V25.1576H-1.4387V28.4349H-4.6993V25.1576H-7.97669V21.897H-4.6993V18.6191H-1.4387Z" fill="#9AC4FF"/>
<path id="Vector_3" opacity="0.58" d="M-0.369851 46.4111V49.689H2.90796V52.9496H-0.369851V56.2269H-3.63045V52.9496H-6.90784V49.689H-3.63045V46.4111H-0.369851Z" fill="#9AC4FF"/>
<path id="Vector_4" opacity="0.88" d="M25.6125 63.4717V73.0317H35.1726V82.5423H25.6125V92.1023H16.102V82.5423H6.54194V73.0317H16.102V63.4717H25.6125Z" fill="#9AC4FF"/>
<path id="Vector_5" opacity="0.25" d="M34.3779 1.75586V8.81525H41.4373V15.8376H34.3779V22.8966H27.3555V15.8376H20.2966V8.81525H27.3555V1.75586H34.3779Z" fill="#9AC4FF"/>
<path id="Vector_6" opacity="0.96" d="M62.4847 4.04199V6.4333H64.876V8.81212H62.4847V11.2034H60.1058V8.81212H57.7141V6.4333H60.1058V4.04199H62.4847Z" fill="#9AC4FF"/>
<path id="Vector_7" opacity="0.21" d="M7.51129 50.332V55.5646H12.7434V60.77H7.51129V66.0025H2.30588V60.77H-2.92667V55.5646H2.30588V50.332H7.51129Z" fill="#9AC4FF"/>
<path id="Vector_8" opacity="0.26" d="M28.3551 90.3916V92.9164H30.8799V95.4282H28.3551V97.953H25.8432V95.4282H23.3185V92.9164H25.8432V90.3916H28.3551Z" fill="#9AC4FF"/>
<path id="Vector_9" opacity="0.39" d="M5.26369 69.4521V84.6155H20.427V99.7H5.26369V114.863H-9.82083V99.7H-24.9841V84.6155H-9.82083V69.4521H5.26369Z" fill="#9AC4FF"/>
<path id="Vector_10" opacity="0.59" d="M12.1349 -0.8125V5.69664H18.6436V12.1718H12.1349V18.6809H5.65973V12.1718H-0.849417V5.69664H5.65973V-0.8125H12.1349Z" fill="#9AC4FF"/>
<path id="Vector_11" opacity="0.87" d="M56.1308 68.2373V70.1761H58.0701V72.1054H56.1308V74.0446H54.202V72.1054H52.2627V70.1761H54.202V68.2373H56.1308Z" fill="#9AC4FF"/>
<path id="Vector_12" opacity="0.66" d="M85.3703 19.4346V28.5645H94.5002V37.6475H85.3703V46.7779H76.2873V37.6475H67.1569V28.5645H76.2873V19.4346H85.3703Z" fill="#9AC4FF"/>
<path id="Vector_13" opacity="0.53" d="M47.9841 -26.3223V-17.2205H57.0862V-8.16537H47.9841V0.936356H38.9293V-8.16537H29.8276V-17.2205H38.9293V-26.3223H47.9841Z" fill="#9AC4FF"/>
<path id="Vector_14" opacity="0.89" d="M41.3839 13.2305V27.3297H55.4827V41.3554H41.3839V55.4546H27.3577V41.3554H13.2585V27.3297H27.3577V13.2305H41.3839Z" fill="#9AC4FF"/>
</g>
</g>
</g>
</svg>
