<svg width="70" height="71" viewBox="0 0 70 71" fill="none" xmlns="http://www.w3.org/2000/svg">
<g id="Group 39626">
<circle id="Ellipse 1" cx="35.0001" cy="35.5001" r="35.0001" fill="#EFF6FF"/>
<g id="Group 28">
<path id="Vector" d="M56.9786 28.1131C56.7203 23.3126 53.9609 18.4727 48.382 18.4727C46.2835 18.4727 44.3909 19.1684 43.1986 20.3873C42.3861 21.2143 41.9462 22.2344 41.9612 23.262C41.9762 24.2277 42.3131 25.0641 42.6351 25.8779C42.6987 26.0448 42.768 26.2117 42.8298 26.3767C38.6739 27.47 35.5962 31.2709 35.5962 35.7772V42.8599C35.5962 43.1825 35.3266 43.4469 34.999 43.4469C34.6714 43.4469 34.4018 43.1825 34.4018 42.8599L34.4055 35.7791C34.4055 31.273 31.3298 27.4756 27.1681 26.3786C27.2261 26.2211 27.2898 26.0655 27.3497 25.908C27.6773 25.0848 28.0142 24.2371 28.0348 23.2583C28.0498 22.2344 27.6099 21.2106 26.7974 20.3873C25.5993 19.1722 23.7123 18.4727 21.614 18.4727C16.039 18.4727 13.2815 23.3184 13.0212 28.1132C12.718 33.6281 15.4848 39.5409 21.348 40.1784C21.5333 40.1972 21.7205 40.2085 21.9002 40.2085C23.3192 40.2085 24.5997 39.6009 25.4796 38.4889C26.7806 36.8481 27.0689 34.3503 26.3201 31.5132C28.6826 32.2145 30.4124 34.4085 30.4124 37.0002V44.3475C28.4861 45.2682 27.3516 46.7328 27.3516 48.3305C27.3516 50.3088 29.0477 52.0378 31.7771 52.8516C32.5203 53.0729 33.0052 53.718 33.0052 54.4981V55.0325C33.0052 55.4188 33.3178 55.7338 33.7053 55.7338H36.2961C36.6818 55.7338 36.9963 55.4207 36.9963 55.0325V54.5018C36.9963 53.7236 37.4755 53.0766 38.2243 52.8554C40.9537 52.0415 42.6498 50.3126 42.6498 48.3342C42.6498 46.7365 41.5097 45.272 39.5797 44.3475V37.0002C39.5797 34.4087 41.3113 32.2147 43.672 31.5132C42.9288 34.3448 43.2171 36.8389 44.5181 38.4836C45.3979 39.5956 46.684 40.2088 48.1031 40.2088C48.2846 40.2088 48.47 40.1995 48.6553 40.1788C54.5092 39.5413 57.2758 33.6285 56.9782 28.1136L56.9786 28.1131ZM48.4985 38.7867C47.3341 38.9142 46.3082 38.4979 45.6081 37.6166C44.5036 36.2158 44.3557 33.928 45.1869 31.2822C45.2206 31.2822 45.2505 31.2766 45.2842 31.2766C47.6748 31.2766 48.8242 31.5991 48.9029 33.4369C48.9178 33.8231 49.2398 34.1326 49.6311 34.1082C50.0167 34.0932 50.3162 33.765 50.3012 33.3787C50.1552 29.8758 46.9915 29.8758 45.2879 29.8758C45.112 29.8758 44.936 29.8908 44.7637 29.9002C44.6701 29.8908 44.5784 29.8946 44.4942 29.9189C40.9448 30.3165 38.1759 33.3375 38.1759 36.9978V44.8007V44.8063C38.1759 44.8457 38.1815 44.8794 38.1852 44.9188C38.1946 44.9638 38.204 45.0126 38.2189 45.0519C38.2246 45.0576 38.2246 45.0669 38.2246 45.0707C38.2339 45.1007 38.2545 45.1251 38.2695 45.1495C38.2788 45.1645 38.2845 45.1795 38.2882 45.1888C38.3032 45.2076 38.3182 45.2282 38.3369 45.247C38.3518 45.262 38.3612 45.2807 38.3762 45.2957C38.4099 45.3295 38.4454 45.3538 38.4791 45.3839H38.4848C38.5241 45.4082 38.5634 45.4326 38.6064 45.4476C40.2594 46.1283 41.2479 47.2066 41.2479 48.3336C41.2479 49.6462 39.9037 50.8951 37.8239 51.5121C36.5435 51.889 35.6674 53.0104 35.5981 54.3343H34.4C34.3308 53.016 33.4565 51.889 32.1798 51.5121C30.1019 50.8951 28.7559 49.6462 28.7559 48.3336C28.7559 47.2065 29.7387 46.1283 31.3861 45.4476C31.431 45.4289 31.4685 45.4082 31.5078 45.3839H31.5134C31.5527 45.3595 31.5864 45.3295 31.6163 45.2957C31.6313 45.2807 31.6407 45.2657 31.6557 45.247C31.6706 45.2282 31.6894 45.2076 31.7043 45.1888C31.7137 45.1738 31.7193 45.1645 31.7231 45.1495C31.738 45.1251 31.753 45.0951 31.768 45.0707V45.0651C31.7867 45.0163 31.8017 44.9676 31.8073 44.9188C31.8129 44.885 31.8167 44.8457 31.8167 44.8063V44.8007L31.8241 37.0036C31.8241 33.345 29.0554 30.3222 25.5059 29.9247C25.4235 29.9003 25.3299 29.8947 25.2419 29.9059C25.0659 29.8909 24.8956 29.8816 24.714 29.8816C23.0123 29.8816 19.843 29.8816 19.7117 33.3845C19.6967 33.7708 20 34.0952 20.3818 34.1102C20.7637 34.1252 21.0914 33.8214 21.1063 33.4389C21.1756 31.6068 22.3231 31.2842 24.7156 31.2842C24.7493 31.2842 24.7792 31.2899 24.8129 31.2899C25.6497 33.9358 25.5018 36.2272 24.3973 37.628C23.7028 38.5056 22.675 38.9219 21.5125 38.7944C16.5011 38.2431 14.15 33.0467 14.414 28.1919C14.62 24.3571 16.6287 19.8735 21.6122 19.8735C23.3382 19.8735 24.8639 20.4173 25.8037 21.3718C26.3522 21.9306 26.6498 22.5907 26.6405 23.2376C26.6311 23.9577 26.3616 24.6197 26.0583 25.3885C25.9647 25.6229 25.873 25.8686 25.7794 26.118C25.4274 26.0786 25.0699 26.0598 24.7086 26.0598H22.4584H22.4041C21.9099 26.0936 21.4363 25.9173 21.0937 25.5798C20.7473 25.2216 20.5657 24.7416 20.6051 24.2578C20.635 23.8715 20.3467 23.5377 19.9592 23.5077C19.5773 23.4833 19.2404 23.7665 19.2104 24.1546C19.1468 25.0416 19.4687 25.9174 20.0996 26.5643C20.7249 27.1906 21.586 27.515 22.4771 27.4606H24.7029C29.28 27.4606 33.0072 31.1942 33.0072 35.7791V42.8618C33.0072 43.9588 33.902 44.8514 35.0028 44.8514C36.1035 44.8514 36.9984 43.9607 36.9984 42.8618L36.9965 35.7791C36.9965 31.1941 40.7181 27.4606 45.2897 27.4606H47.5155C48.401 27.5188 49.2659 27.1906 49.893 26.5643C50.5183 25.938 50.8459 25.0604 50.7972 24.164C50.7728 23.7777 50.4452 23.4927 50.0596 23.5077C49.6739 23.5321 49.38 23.8602 49.4044 24.2465C49.4343 24.7454 49.2527 25.2254 48.9102 25.5742C48.5638 25.9211 48.0884 26.0993 47.5941 26.0598H47.5398H45.2897C44.9284 26.0598 44.5764 26.0786 44.2245 26.118C44.1309 25.8536 44.0298 25.5986 43.9306 25.3529C43.6273 24.5934 43.3689 23.9427 43.3577 23.2376C43.3484 22.5907 43.646 21.925 44.1945 21.3662C45.1287 20.4154 46.66 19.8679 48.386 19.8679C53.3691 19.8679 55.38 24.3496 55.5894 28.1863C55.844 33.0469 53.4968 38.2428 48.4985 38.7867Z" fill="#0048A5"/>
<path id="Vector_2" d="M29.6952 26.0223C29.8711 26.0223 30.0527 25.953 30.1838 25.8217C32.052 23.9708 33.0835 21.5162 33.0835 18.9003L33.0854 15.3673C33.0854 14.981 32.7728 14.666 32.3853 14.666C31.9996 14.666 31.6852 14.9792 31.6852 15.3673V18.8984C31.6852 21.1317 30.8053 23.2377 29.201 24.8261C28.9277 25.0961 28.922 25.5406 29.1954 25.8162C29.3339 25.9475 29.5154 26.0223 29.6952 26.0223Z" fill="#0048A5"/>
<path id="Vector_3" d="M40.3021 26.0224C40.4836 26.0224 40.6634 25.953 40.8 25.8123C41.0696 25.5386 41.064 25.0923 40.7907 24.8222C39.192 23.2489 38.3065 21.143 38.3065 18.9003V15.3673C38.3065 14.981 37.9939 14.666 37.6064 14.666C37.2207 14.666 36.9062 14.9792 36.9062 15.3673V18.8984C36.9062 21.5237 37.9377 23.9841 39.806 25.8198C39.9502 25.953 40.1261 26.0224 40.3021 26.0224Z" fill="#0048A5"/>
</g>
</g>
</svg>
