<svg width="30" height="30" viewBox="0 0 30 30" fill="none" xmlns="http://www.w3.org/2000/svg">
<g id="Icon / Page">
<path id="Vector" d="M15.5009 15.2111C17.3641 15.2111 19.057 15.9661 20.2839 17.1824C20.4411 17.3383 20.5897 17.5017 20.7308 17.6715C21.0625 17.4676 21.4169 17.2978 21.7884 17.1675C22.3517 16.971 22.9537 16.8642 23.5762 16.8642C25.0678 16.8642 26.4248 17.4697 27.4072 18.4436C28.3895 19.4175 29 20.7631 29 22.2422V23.3721C29 23.7181 28.7168 24 28.3667 24H2.63327C2.28434 24 2 23.7192 2 23.3721V22.2422C2 20.7632 2.61064 19.4176 3.59285 18.4436C4.57505 17.4695 5.93206 16.8642 7.4238 16.8642C8.0463 16.8642 8.64833 16.972 9.2116 17.1675C9.58425 17.2967 9.93749 17.4665 10.2692 17.6715C10.4103 17.5017 10.56 17.3383 10.7161 17.1824C11.9428 15.9661 13.6359 15.2111 15.4991 15.2111H15.5009ZM7.42568 8.94134C8.34974 8.94134 9.18547 9.31297 9.79073 9.91206C10.3949 10.5122 10.7697 11.342 10.7697 12.2572C10.7697 13.1734 10.396 14.0021 9.79073 14.6023C9.18547 15.2024 8.34864 15.573 7.42568 15.573C6.50162 15.573 5.66589 15.2024 5.06063 14.6023C4.45537 14.0021 4.08057 13.1723 4.08057 12.2572C4.08057 11.3409 4.45537 10.5122 5.06063 9.91206C5.66482 9.31297 6.50272 8.94134 7.42568 8.94134ZM8.89683 10.7995C8.52096 10.4268 8.00078 10.1961 7.42568 10.1961C6.85166 10.1961 6.33145 10.4268 5.95453 10.7995C5.57866 11.1722 5.34604 11.688 5.34604 12.2582C5.34604 12.8274 5.57867 13.3432 5.95453 13.717C6.3304 14.0897 6.85058 14.3203 7.42568 14.3203C7.9997 14.3203 8.51991 14.0897 8.89683 13.717C9.2727 13.3443 9.50531 12.8285 9.50531 12.2582C9.50531 11.689 9.27269 11.1732 8.89683 10.7995ZM23.5772 10.1961C23.0031 10.1961 22.4829 10.4268 22.106 10.7995C21.7301 11.1722 21.4975 11.688 21.4975 12.2582C21.4975 12.8274 21.7302 13.3432 22.106 13.717C22.4819 14.0897 23.0021 14.3203 23.5772 14.3203C24.1512 14.3203 24.6714 14.0897 25.0483 13.717C25.4242 13.3443 25.6568 12.8285 25.6568 12.2582C25.6568 11.689 25.4242 11.1732 25.0483 10.7995C24.6724 10.4268 24.1523 10.1961 23.5772 10.1961ZM21.2121 9.91206C21.8174 9.31297 22.6542 8.94134 23.5772 8.94134C24.5012 8.94134 25.3369 9.31297 25.9422 9.91206C26.5475 10.5122 26.9223 11.342 26.9223 12.2572C26.9223 13.1734 26.5475 14.0021 25.9422 14.6023C25.338 15.2024 24.5001 15.573 23.5772 15.573C22.6531 15.573 21.8174 15.2024 21.2121 14.6023C20.6068 14.0021 20.2331 13.1723 20.2331 12.2572C20.2331 11.3409 20.6079 10.5122 21.2121 9.91206ZM8.73193 22.7449V21.9258C8.73193 20.7618 9.03457 19.6651 9.56443 18.7073C9.32426 18.5642 9.06793 18.4435 8.7987 18.3495C8.37221 18.2011 7.91018 18.1199 7.42769 18.1199C6.28502 18.1199 5.24464 18.5845 4.49196 19.332C3.73806 20.0796 3.26958 21.1101 3.26958 22.243V22.7449L8.73193 22.7449ZM21.4404 18.707C21.9714 19.6639 22.2729 20.7617 22.2729 21.9256V22.7447H27.7352V22.2428C27.7352 21.1097 27.2667 20.0781 26.5128 19.3318C25.7589 18.5842 24.7186 18.1197 23.5771 18.1197C23.0935 18.1197 22.6315 18.2009 22.2061 18.3493C21.9368 18.4433 21.6806 18.5629 21.4404 18.707ZM15.5019 7.25479C14.7168 7.25479 14.006 7.57087 13.4923 8.08026C12.9775 8.59072 12.6598 9.29446 12.6598 10.073C12.6598 10.8515 12.9785 11.5563 13.4923 12.0657C14.0071 12.5761 14.7168 12.8912 15.5019 12.8912C16.2871 12.8912 16.9979 12.5751 17.5116 12.0657C18.0264 11.5552 18.3441 10.8515 18.3441 10.073C18.3441 9.29446 18.0253 8.58966 17.5116 8.08026C16.9968 7.56981 16.2871 7.25479 15.5019 7.25479ZM12.5985 7.19285C13.3416 6.456 14.369 6 15.5019 6C16.636 6 17.6634 6.456 18.4054 7.19285C19.1485 7.9297 19.6084 8.94848 19.6084 10.0718C19.6084 11.1963 19.1485 12.2151 18.4054 12.9508C17.6623 13.6877 16.6348 14.1437 15.5019 14.1437C14.3679 14.1437 13.3404 13.6877 12.5985 12.9508C11.8553 12.214 11.3955 11.1952 11.3955 10.0718C11.3955 8.94733 11.8553 7.92858 12.5985 7.19285ZM19.3911 18.0694C18.3927 17.0794 17.0174 16.4654 15.503 16.4654C13.9899 16.4654 12.6136 17.0794 11.615 18.0694C10.6166 19.0593 9.99737 20.4241 9.99737 21.9246V22.7437H21.0086V21.9246C21.0086 20.4242 20.3894 19.0596 19.3911 18.0694Z" fill="#005CD4"/>
</g>
</svg>
