<svg width="30" height="30" viewBox="0 0 30 30" fill="none" xmlns="http://www.w3.org/2000/svg">
<g id="Icon / Page">
<path id="Vector" d="M14.9415 2.00381C14.7841 2.02112 14.6389 2.09681 14.5345 2.21596C14.4302 2.33511 14.3741 2.48907 14.3776 2.64751V7.71787C14.3764 7.80185 14.3919 7.88524 14.4232 7.96318C14.4544 8.04111 14.5009 8.11205 14.5598 8.17186C14.6187 8.23168 14.6889 8.27917 14.7663 8.31159C14.8437 8.34401 14.9268 8.3607 15.0107 8.3607C15.0946 8.3607 15.1777 8.34401 15.2551 8.31159C15.3326 8.27917 15.4028 8.23168 15.4617 8.17186C15.5206 8.11205 15.567 8.04111 15.5983 7.96318C15.6296 7.88524 15.6451 7.80185 15.6439 7.71787V2.64751C15.6459 2.55728 15.6285 2.46768 15.5931 2.3847C15.5577 2.30172 15.5049 2.22727 15.4384 2.16633C15.3719 2.1054 15.2932 2.05937 15.2075 2.03134C15.1218 2.00332 15.0311 1.99393 14.9415 2.00381ZM7.3433 7.07417C7.2226 7.08593 7.10782 7.13212 7.01259 7.20727C6.91736 7.28242 6.84569 7.38335 6.8061 7.49808C6.7665 7.61281 6.76065 7.7365 6.78923 7.85446C6.81782 7.97242 6.87964 8.07968 6.96734 8.1635L9.50007 10.6987C9.55877 10.7591 9.62892 10.8072 9.70641 10.8402C9.78391 10.8732 9.86719 10.8903 9.95139 10.8907C10.0356 10.891 10.119 10.8746 10.1968 10.8423C10.2746 10.81 10.3451 10.7625 10.4043 10.7025C10.4635 10.6426 10.5102 10.5715 10.5416 10.4933C10.573 10.4151 10.5886 10.3314 10.5873 10.2471C10.586 10.1628 10.5679 10.0797 10.5341 10.0025C10.5003 9.92527 10.4515 9.85559 10.3905 9.79751L7.85776 7.26233C7.79154 7.19442 7.71094 7.14226 7.6219 7.10969C7.53286 7.07713 7.43765 7.06499 7.3433 7.07417ZM22.5298 7.07417C22.3902 7.09435 22.2614 7.16057 22.1637 7.26233L19.631 9.79751C19.57 9.85559 19.5211 9.92527 19.4874 10.0025C19.4536 10.0797 19.4355 10.1628 19.4342 10.2471C19.4329 10.3314 19.4484 10.4151 19.4798 10.4933C19.5112 10.5715 19.5579 10.6426 19.6171 10.7025C19.6763 10.7625 19.7469 10.81 19.8247 10.8423C19.9024 10.8746 19.9859 10.891 20.0701 10.8907C20.1543 10.8903 20.2376 10.8732 20.3151 10.8402C20.3926 10.8072 20.4627 10.7591 20.5214 10.6987L23.0541 8.1635C23.1523 8.07119 23.2185 7.94994 23.2432 7.81737C23.2678 7.6848 23.2496 7.54782 23.1911 7.42634C23.1326 7.30486 23.037 7.20521 22.918 7.14188C22.7991 7.07855 22.6631 7.05483 22.5298 7.07417ZM15.0107 12.1544C11.5085 12.1544 8.67892 15.0364 8.67892 18.5815V22.2951H7.09596C7.07618 22.2942 7.05638 22.2942 7.0366 22.2951C6.87916 22.31 6.73298 22.3833 6.62679 22.5006C6.5206 22.6178 6.4621 22.7707 6.46278 22.9289V26.7317H4.24664C4.22686 26.7308 4.20706 26.7308 4.18728 26.7317C4.10412 26.7356 4.02253 26.7558 3.94719 26.7913C3.87184 26.8267 3.80421 26.8767 3.74816 26.9383C3.69211 26.9999 3.64873 27.072 3.6205 27.1504C3.59227 27.2288 3.57975 27.312 3.58365 27.3952C3.58755 27.4785 3.60779 27.5601 3.64322 27.6355C3.67865 27.7109 3.72857 27.7786 3.79014 27.8347C3.85171 27.8908 3.92371 27.9342 4.00204 27.9625C4.08036 27.9907 4.16348 28.0032 4.24664 27.9993H25.7748C25.8587 28.0005 25.942 27.985 26.0199 27.9537C26.0978 27.9223 26.1686 27.8758 26.2284 27.8169C26.2881 27.7579 26.3356 27.6876 26.368 27.6101C26.4004 27.5327 26.417 27.4495 26.417 27.3655C26.417 27.2815 26.4004 27.1984 26.368 27.1209C26.3356 27.0434 26.2881 26.9731 26.2284 26.9141C26.1686 26.8552 26.0978 26.8087 26.0199 26.7773C25.942 26.746 25.8587 26.7305 25.7748 26.7317H23.5587V22.9289C23.5587 22.7609 23.492 22.5997 23.3732 22.4808C23.2545 22.3619 23.0934 22.2952 22.9255 22.2951H21.3426V18.5815C21.3426 15.0364 18.513 12.1544 15.0107 12.1544ZM15.0107 13.422C17.8226 13.422 20.0762 15.7061 20.0762 18.5815V22.2951H9.94528V18.5815C9.94528 15.7061 12.1989 13.422 15.0107 13.422ZM15.0107 14.3727C12.9161 14.3727 10.8951 15.9997 10.8951 18.1755C10.8939 18.2595 10.9094 18.3429 10.9407 18.4208C10.9719 18.4987 11.0184 18.5697 11.0773 18.6295C11.1362 18.6893 11.2064 18.7368 11.2838 18.7692C11.3612 18.8016 11.4443 18.8183 11.5282 18.8183C11.6121 18.8183 11.6952 18.8016 11.7726 18.7692C11.85 18.7368 11.9203 18.6893 11.9792 18.6295C12.0381 18.5697 12.0845 18.4987 12.1158 18.4208C12.1471 18.3429 12.1626 18.2595 12.1614 18.1755C12.1614 16.8303 13.5976 15.6403 15.0107 15.6403C15.0946 15.6415 15.1779 15.626 15.2558 15.5947C15.3337 15.5633 15.4045 15.5168 15.4643 15.4579C15.524 15.3989 15.5715 15.3286 15.6039 15.2511C15.6363 15.1737 15.6529 15.0905 15.6529 15.0065C15.6529 14.9225 15.6363 14.8394 15.6039 14.7619C15.5715 14.6844 15.524 14.6141 15.4643 14.5551C15.4045 14.4962 15.3337 14.4497 15.2558 14.4184C15.1779 14.387 15.0946 14.3715 15.0107 14.3727ZM2.60432 14.6896C2.52116 14.6935 2.43958 14.7137 2.36423 14.7492C2.28889 14.7846 2.22126 14.8346 2.16521 14.8962C2.10915 14.9578 2.06577 15.0299 2.03755 15.1083C2.00932 15.1867 1.9968 15.2699 2.0007 15.3531C2.00459 15.4364 2.02484 15.518 2.06027 15.5934C2.09569 15.6688 2.14562 15.7365 2.20718 15.7926C2.26875 15.8487 2.34075 15.8921 2.41908 15.9204C2.49741 15.9486 2.58052 15.9611 2.66368 15.9572H7.72914C7.81305 15.9584 7.89635 15.9429 7.97421 15.9116C8.05208 15.8802 8.12294 15.8337 8.1827 15.7748C8.24245 15.7158 8.2899 15.6455 8.32229 15.568C8.35468 15.4906 8.37135 15.4074 8.37135 15.3234C8.37135 15.2394 8.35468 15.1563 8.32229 15.0788C8.2899 15.0013 8.24245 14.931 8.1827 14.872C8.12294 14.8131 8.05208 14.7666 7.97421 14.7353C7.89635 14.7039 7.81305 14.6884 7.72914 14.6896H2.66368C2.64391 14.6887 2.6241 14.6887 2.60432 14.6896ZM22.233 14.6896C22.1498 14.6935 22.0682 14.7137 21.9929 14.7492C21.9175 14.7846 21.8499 14.8346 21.7939 14.8962C21.7378 14.9578 21.6944 15.0299 21.6662 15.1083C21.638 15.1867 21.6254 15.2699 21.6293 15.3531C21.6332 15.4364 21.6535 15.518 21.6889 15.5934C21.7243 15.6688 21.7743 15.7365 21.8358 15.7926C21.8974 15.8487 21.9694 15.8921 22.0477 15.9204C22.1261 15.9486 22.2092 15.9611 22.2923 15.9572H27.3578C27.4417 15.9584 27.525 15.9429 27.6029 15.9116C27.6807 15.8802 27.7516 15.8337 27.8113 15.7748C27.8711 15.7158 27.9185 15.6455 27.9509 15.568C27.9833 15.4906 28 15.4074 28 15.3234C28 15.2394 27.9833 15.1563 27.9509 15.0788C27.9185 15.0013 27.8711 14.931 27.8113 14.872C27.7516 14.8131 27.6807 14.7666 27.6029 14.7353C27.525 14.7039 27.4417 14.6884 27.3578 14.6896H22.2923C22.2726 14.6887 22.2527 14.6887 22.233 14.6896ZM7.72914 23.5627H22.2923V26.7317H7.72914V23.5627Z" fill="#005CD4"/>
</g>
</svg>
