<svg width="32" height="32" viewBox="0 0 32 32" fill="none" xmlns="http://www.w3.org/2000/svg">
<g id="Icon / Page">
<g id="Group">
<path id="Vector" d="M29.9927 17.623C29.7437 17.623 29.5495 17.8255 29.5495 18.0743V20.0655H28.6251C28.1566 15.8133 24.4378 15.4294 24.3618 15.4252H9.80346C9.54598 15.4252 9.34337 15.6276 9.34337 15.8765V20.0697H2.4504V12.7633C2.4504 12.5186 2.25201 12.3162 2.00719 12.3162C1.74971 12.3162 1.55554 12.5186 1.55554 12.7633V20.5126V22.799V26.8108C1.55554 27.0554 1.75393 27.2579 2.00719 27.2579C2.25624 27.2579 2.4504 27.0554 2.4504 26.8108V23.2504H29.5495V26.8108C29.5495 27.0554 29.7479 27.2579 29.9927 27.2579C30.2502 27.2579 30.4444 27.0554 30.4444 26.8108V22.799V20.5126V18.0743C30.4486 17.8255 30.2502 17.623 29.9927 17.623ZM10.2509 16.3237H24.3239C24.4547 16.3363 27.2912 16.6527 27.7218 20.0612H10.2509V16.3237ZM2.4504 22.3476V20.9682H29.5495V22.3519L2.4504 22.3476Z" fill="#005CD4"/>
<path id="Vector_2" d="M6.17792 19.7867C7.59619 19.7867 8.74853 18.6351 8.74853 17.2135C8.74853 15.7918 7.59619 14.636 6.17792 14.636C4.7512 14.636 3.6073 15.7918 3.6073 17.2135C3.6073 18.6351 4.7512 19.7867 6.17792 19.7867ZM6.17792 15.5345C7.09388 15.5345 7.84945 16.2854 7.84945 17.2092C7.84945 18.1289 7.08966 18.884 6.17792 18.884C5.25351 18.884 4.50638 18.1289 4.50638 17.2092C4.50216 16.2854 5.25351 15.5345 6.17792 15.5345Z" fill="#005CD4"/>
<path id="Vector_3" d="M15.0962 12.1765C15.0962 12.4296 15.303 12.6279 15.5479 12.6279C15.7885 12.6279 15.9911 12.4254 15.9911 12.1765V9.47672H18.701C18.95 9.47672 19.1442 9.27423 19.1442 9.02956C19.1442 8.78067 18.9458 8.57819 18.701 8.57819H15.9953V5.87838C15.9953 5.62527 15.7885 5.427 15.5521 5.427C15.303 5.427 15.1004 5.62949 15.1004 5.87838V8.57397H12.3947C12.1457 8.57397 11.9515 8.77645 11.9515 9.02534C11.9515 9.27001 12.1499 9.4725 12.3947 9.4725H15.1004V12.1765H15.0962Z" fill="#005CD4"/>
<path id="Vector_4" d="M15.5528 14.2733C18.4485 14.2733 20.8038 11.9194 20.8038 9.02559C20.8038 6.13173 18.4442 3.77783 15.5528 3.77783C12.6614 3.77783 10.2892 6.13173 10.2892 9.02559C10.2892 11.9194 12.6572 14.2733 15.5528 14.2733ZM15.5528 4.67636C17.9504 4.67636 19.8963 6.62529 19.8963 9.02559C19.8963 11.4174 17.9504 13.3706 15.5528 13.3706C13.1468 13.3706 11.2009 11.4174 11.2009 9.02559C11.1967 6.62951 13.1426 4.67636 15.5528 4.67636Z" fill="#005CD4"/>
</g>
</g>
</svg>
