<svg width="39" height="38" viewBox="0 0 39 38" fill="none" xmlns="http://www.w3.org/2000/svg">
<g id="Group 3">
<path id="Vector 1" d="M25.795 0.277832C18.0654 7.56795 15.3919 13.1859 12.9604 25.3636C19.0934 16.546 22.7866 12.1554 32.2123 10.4872C29.945 5.17905 28.4749 3.30311 25.795 0.277832Z" fill="white"/>
<path id="Vector 2" d="M32.7954 11.6538C24.7192 13.7391 20.971 16.7754 15.002 23.905C24.1164 17.8683 29.2256 17.52 38.3376 26.2386C36.898 20.4285 35.629 17.2439 32.7954 11.6538Z" fill="white"/>
<path id="Vector 3" d="M7.59351 3.57729C10.5383 1.70052 16.0319 0.246188 21.7109 2.90294C14.6571 -1.65865 5.95929 -0.597385 2.75074 4.36141C-0.293549 9.06636 -1.25173 13.9477 2.15998 21.244C2.49357 21.9575 3.28686 22.3274 4.05566 22.1565C4.83163 21.9841 5.62538 22.3619 5.98087 23.0729L7.00027 25.1117C7.07743 25.266 7.23515 25.3635 7.40769 25.3635C7.7782 25.3635 7.99558 24.9423 7.79205 24.6327C4.10377 19.0221 3.41435 12.6129 3.91094 8.99343C4.16001 7.17806 6.04828 4.5621 7.59351 3.57729Z" fill="white"/>
<path id="Vector 4" d="M25.3217 34.838C21.5038 34.2571 19.1936 33.5065 16.5054 31.8777C15.5065 31.2725 13.799 30.3802 13.4413 31.4919C13.3508 31.773 13.391 32.1731 13.5558 32.7293C13.7121 33.2567 14.0869 33.6913 14.5658 33.9619C17.115 35.4023 19.6412 36.1404 24.9947 36.8548C25.906 36.9764 26.8403 36.9082 27.7226 36.6497C35.8479 34.2686 37.0356 32.4455 37.4624 29.1556C35.7442 32.8518 33.2073 34.0158 27.4358 34.8455C26.7355 34.9461 26.0211 34.9444 25.3217 34.838Z" fill="white"/>
<g id="Group 1">
<rect id="Rectangle 1" x="7.34473" y="26.2385" width="3.0628" height="8.16746" fill="white"/>
<rect id="Rectangle 2" x="4.79224" y="31.8536" width="3.0628" height="8.16746" transform="rotate(-90 4.79224 31.8536)" fill="white"/>
</g>
<g id="Group 2">
<rect id="Rectangle 1_2" x="3.55249" y="23.9052" width="1.31263" height="3.50034" fill="white"/>
<rect id="Rectangle 2_2" x="2.45923" y="26.3115" width="1.31263" height="3.50034" transform="rotate(-90 2.45923 26.3115)" fill="white"/>
</g>
<circle id="Ellipse 1" cx="25.2114" cy="25.6553" r="3.83245" stroke="white" stroke-width="0.50256"/>
</g>
</svg>
