<svg width="32" height="44" viewBox="0 0 32 44" fill="none" xmlns="http://www.w3.org/2000/svg">
<g id="Group 481527">
<path id="Vector" d="M16 21.1467C18.0527 21.1467 20.0594 20.538 21.7661 19.3976C23.4729 18.2571 24.8032 16.6362 25.5888 14.7397C26.3743 12.8432 26.5799 10.7564 26.1794 8.74306C25.7789 6.72976 24.7904 4.88042 23.3389 3.42891C21.8874 1.9774 20.0381 0.98891 18.0248 0.588439C16.0115 0.187968 13.9246 0.393504 12.0281 1.17906C10.1317 1.96461 8.51069 3.29489 7.37025 5.00169C6.2298 6.70849 5.62109 8.71513 5.62109 10.7679C5.62109 13.5205 6.71458 16.1604 8.66099 18.1068C10.6074 20.0533 13.2473 21.1467 16 21.1467ZM16 2.20033C17.6945 2.20033 19.3509 2.70281 20.7598 3.64423C22.1688 4.58564 23.2669 5.92371 23.9153 7.48922C24.5638 9.05474 24.7335 10.7774 24.4029 12.4393C24.0723 14.1013 23.2563 15.6279 22.0581 16.826C20.8599 18.0242 19.3333 18.8402 17.6714 19.1708C16.0095 19.5014 14.2868 19.3317 12.7213 18.6833C11.1558 18.0348 9.81772 16.9367 8.87631 15.5278C7.93489 14.1188 7.43241 12.4624 7.43241 10.7679C7.43401 8.49556 8.33698 6.31668 9.94319 4.70934C11.5494 3.102 13.7276 2.19749 16 2.1943V2.20033Z" fill="#4988DA"/>
<path id="Vector_2" d="M16 21.6237C11.758 21.6285 7.69113 23.3158 4.69159 26.3153C1.69204 29.3149 0.00479412 33.3818 0 37.6238C1.01235e-08 37.8639 0.095418 38.0943 0.265262 38.2642C0.435107 38.434 0.665464 38.5294 0.90566 38.5294C1.14586 38.5294 1.37621 38.434 1.54606 38.2642C1.7159 38.0943 1.81132 37.8639 1.81132 37.6238C1.81361 35.0372 2.52229 32.5004 3.86087 30.2872C5.19945 28.074 7.11709 26.2684 9.40679 25.0653C9.98166 26.068 10.7637 26.9367 11.7007 27.6134C12.6377 28.2901 13.7081 28.7593 14.8408 28.9898V31.749C14.8408 33.7958 14.7743 37.6056 17.0747 39.8879C18.2961 41.031 19.9002 41.6769 21.5728 41.6992C21.7583 42.3076 22.1527 42.8309 22.6864 43.1768C23.2201 43.5227 23.8589 43.6691 24.4899 43.59C25.121 43.5109 25.7039 43.2115 26.1357 42.7446C26.5676 42.2776 26.8206 41.6732 26.8503 41.0379C26.8799 40.4026 26.6843 39.7772 26.2978 39.2721C25.9113 38.7669 25.3588 38.4145 24.7379 38.277C24.1169 38.1395 23.4673 38.2257 22.9037 38.5204C22.3401 38.8152 21.8987 39.2995 21.6574 39.8879C20.4328 39.8839 19.2543 39.4207 18.3547 38.5898C16.6038 36.863 16.6038 33.6751 16.64 31.7611V29.1709C16.8151 29.1709 16.9962 29.1709 17.1713 29.1709C18.402 29.0614 19.5919 28.6742 20.6513 28.0383C21.7107 27.4025 22.6121 26.5346 23.2875 25.5C25.3843 26.7557 27.1212 28.5316 28.3302 30.6556C29.5393 32.7796 30.1794 35.1798 30.1887 37.6238C30.1887 37.8639 30.2841 38.0943 30.4539 38.2642C30.6238 38.434 30.8541 38.5294 31.0943 38.5294C31.3345 38.5294 31.5649 38.434 31.7347 38.2642C31.9046 38.0943 32 37.8639 32 37.6238C31.9952 33.3818 30.308 29.3149 27.3084 26.3153C24.3089 23.3158 20.242 21.6285 16 21.6237ZM24.1509 40.0388C24.3254 40.04 24.4959 40.0915 24.6418 40.1872C24.7877 40.2829 24.9029 40.4187 24.9734 40.5783C25.044 40.7379 25.0669 40.9145 25.0395 41.0868C25.0121 41.2591 24.9355 41.4199 24.8189 41.5497C24.7023 41.6795 24.5507 41.7729 24.3822 41.8185C24.2138 41.8642 24.0358 41.8603 23.8696 41.8072C23.7034 41.7541 23.556 41.6542 23.4453 41.5193C23.3345 41.3845 23.2651 41.2205 23.2453 41.0471C23.2663 40.9684 23.2765 40.8871 23.2755 40.8056C23.2755 40.7754 23.2755 40.7453 23.2755 40.7151C23.3262 40.5215 23.4396 40.3501 23.598 40.2278C23.7564 40.1054 23.9508 40.039 24.1509 40.0388ZM17.0143 27.3173C15.8403 27.4178 14.6615 27.1884 13.6107 26.6551C12.56 26.1217 11.679 25.3055 11.0672 24.2985C14.5052 23.0238 18.3035 23.132 21.6634 24.6004C21.1345 25.3658 20.444 26.0059 19.6407 26.4753C18.8374 26.9448 17.9409 27.2322 17.0143 27.3173Z" fill="#4988DA"/>
<path id="Vector_3" d="M10.5664 34.0011C10.2162 34.0011 9.86002 34.0011 9.46152 34.0011C9.46152 33.5905 9.46152 33.2222 9.46152 32.8539C9.46399 32.7335 9.4421 32.6139 9.39715 32.5021C9.35221 32.3904 9.28514 32.2889 9.19999 32.2038C9.11483 32.1186 9.01334 32.0516 8.90162 32.0066C8.78989 31.9617 8.67023 31.9398 8.54983 31.9422C8.42924 31.9476 8.31093 31.977 8.20187 32.0287C8.09281 32.0805 7.99519 32.1535 7.91475 32.2435C7.83431 32.3335 7.77267 32.4387 7.73347 32.5528C7.69426 32.667 7.67827 32.7878 7.68643 32.9083C7.68643 33.2585 7.68643 33.6147 7.68643 34.0011H6.61172C6.49278 34.0011 6.37501 34.0245 6.26513 34.07C6.15525 34.1156 6.05541 34.1823 5.97132 34.2664C5.88722 34.3505 5.82051 34.4503 5.77499 34.5602C5.72948 34.6701 5.70605 34.7878 5.70605 34.9068C5.70605 35.0257 5.72948 35.1435 5.77499 35.2533C5.82051 35.3632 5.88722 35.4631 5.97132 35.5472C6.05541 35.6313 6.15525 35.698 6.26513 35.7435C6.37501 35.789 6.49278 35.8124 6.61172 35.8124C6.94983 35.8124 7.28794 35.8124 7.67436 35.8124C7.67436 36.1626 7.67436 36.4766 7.67436 36.7845C7.67436 37.4366 8.01851 37.8532 8.54983 37.8653C9.08115 37.8773 9.44341 37.4487 9.45549 36.8087C9.45549 36.4887 9.45549 36.1626 9.45549 35.8124H10.0593C10.2404 35.8124 10.4155 35.8124 10.5966 35.8124C10.84 35.8124 11.0734 35.7157 11.2456 35.5436C11.4177 35.3715 11.5144 35.1381 11.5144 34.8947C11.5129 34.7731 11.4869 34.6531 11.4381 34.5418C11.3892 34.4305 11.3185 34.3302 11.23 34.2468C11.1415 34.1634 11.0372 34.0987 10.9232 34.0565C10.8092 34.0142 10.6879 33.9954 10.5664 34.0011Z" fill="#4988DA"/>
</g>
</svg>
