<svg width="16" height="18" viewBox="0 0 16 18" fill="none" xmlns="http://www.w3.org/2000/svg">
<g id="Group 39469">
<path id="Vector" d="M6.18088 4.36377C6.04425 4.36377 5.91322 4.41804 5.81661 4.51465C5.72 4.61126 5.66572 4.74229 5.66572 4.87892C5.66572 5.01555 5.72 5.14658 5.81661 5.24319C5.91322 5.3398 6.04425 5.39407 6.18088 5.39407H9.27179C9.40841 5.39407 9.53944 5.3398 9.63605 5.24319C9.73266 5.14658 9.78694 5.01555 9.78694 4.87892C9.78694 4.74229 9.73266 4.61126 9.63605 4.51465C9.53944 4.41804 9.40841 4.36377 9.27179 4.36377H6.18088ZM5.15057 10.0304C5.15057 10.3037 5.04202 10.5658 4.8488 10.759C4.65558 10.9522 4.39352 11.0607 4.12027 11.0607C3.84702 11.0607 3.58495 10.9522 3.39173 10.759C3.19852 10.5658 3.08997 10.3037 3.08997 10.0304C3.08997 9.75718 3.19852 9.49512 3.39173 9.3019C3.58495 9.10868 3.84702 9.00013 4.12027 9.00013C4.39352 9.00013 4.65558 9.10868 4.8488 9.3019C5.04202 9.49512 5.15057 9.75718 5.15057 10.0304ZM5.15057 13.6365C5.15057 13.9098 5.04202 14.1718 4.8488 14.365C4.65558 14.5583 4.39352 14.6668 4.12027 14.6668C3.84702 14.6668 3.58495 14.5583 3.39173 14.365C3.19852 14.1718 3.08997 13.9098 3.08997 13.6365C3.08997 13.3632 3.19852 13.1012 3.39173 12.908C3.58495 12.7147 3.84702 12.6062 4.12027 12.6062C4.39352 12.6062 4.65558 12.7147 4.8488 12.908C5.04202 13.1012 5.15057 13.3632 5.15057 13.6365ZM7.72633 11.0607C7.99958 11.0607 8.26165 10.9522 8.45486 10.759C8.64808 10.5658 8.75663 10.3037 8.75663 10.0304C8.75663 9.75718 8.64808 9.49512 8.45486 9.3019C8.26165 9.10868 7.99958 9.00013 7.72633 9.00013C7.45308 9.00013 7.19102 9.10868 6.9978 9.3019C6.80458 9.49512 6.69603 9.75718 6.69603 10.0304C6.69603 10.3037 6.80458 10.5658 6.9978 10.759C7.19102 10.9522 7.45308 11.0607 7.72633 11.0607ZM8.75663 13.6365C8.75663 13.9098 8.64808 14.1718 8.45486 14.365C8.26165 14.5583 7.99958 14.6668 7.72633 14.6668C7.45308 14.6668 7.19102 14.5583 6.9978 14.365C6.80458 14.1718 6.69603 13.9098 6.69603 13.6365C6.69603 13.3632 6.80458 13.1012 6.9978 12.908C7.19102 12.7147 7.45308 12.6062 7.72633 12.6062C7.99958 12.6062 8.26165 12.7147 8.45486 12.908C8.64808 13.1012 8.75663 13.3632 8.75663 13.6365ZM11.3324 11.0607C11.6056 11.0607 11.8677 10.9522 12.0609 10.759C12.2541 10.5658 12.3627 10.3037 12.3627 10.0304C12.3627 9.75718 12.2541 9.49512 12.0609 9.3019C11.8677 9.10868 11.6056 9.00013 11.3324 9.00013C11.0591 9.00013 10.7971 9.10868 10.6039 9.3019C10.4106 9.49512 10.3021 9.75718 10.3021 10.0304C10.3021 10.3037 10.4106 10.5658 10.6039 10.759C10.7971 10.9522 11.0591 11.0607 11.3324 11.0607Z" fill="#3B8BF4"/>
<path id="Vector_2" fill-rule="evenodd" clip-rule="evenodd" d="M3.60606 0.5C3.74269 0.5 3.87372 0.554275 3.97033 0.650884C4.06694 0.747494 4.12121 0.878525 4.12121 1.01515V2.04545H11.3333V1.01515C11.3333 0.878525 11.3876 0.747494 11.4842 0.650884C11.5808 0.554275 11.7119 0.5 11.8485 0.5C11.9851 0.5 12.1161 0.554275 12.2128 0.650884C12.3094 0.747494 12.3636 0.878525 12.3636 1.01515V2.04855C12.6157 2.05061 12.8403 2.05954 13.0375 2.07533C13.4135 2.10624 13.7432 2.17115 14.0482 2.3257C14.5327 2.57286 14.9266 2.96707 15.1733 3.45182C15.3289 3.75679 15.3938 4.08648 15.4247 4.46151C15.4545 4.82727 15.4545 5.27751 15.4545 5.83594V13.7095C15.4545 14.2679 15.4545 14.7192 15.4247 15.0829C15.3938 15.459 15.3289 15.7887 15.1733 16.0936C14.9264 16.578 14.5326 16.9718 14.0482 17.2187C13.7432 17.3743 13.4135 17.4392 13.0385 17.4701C12.6727 17.5 12.2225 17.5 11.6651 17.5H3.79049C3.23206 17.5 2.78079 17.5 2.41709 17.4701C2.04103 17.4392 1.71133 17.3743 1.40636 17.2187C0.921612 16.972 0.527407 16.5782 0.280242 16.0936C0.125697 15.7887 0.0607877 15.459 0.0298786 15.0839C-1.99585e-07 14.7182 0 14.2669 0 13.7085V5.83697C0 5.34758 -1.91909e-08 4.94267 0.020606 4.6037L0.0298786 4.46358C0.0607877 4.08752 0.125697 3.75782 0.280242 3.45285C0.527232 2.96794 0.921455 2.57372 1.40636 2.32673C1.71133 2.17218 2.04103 2.10727 2.41606 2.07636C2.61457 2.06057 2.83952 2.05164 3.09091 2.04958V1.01515C3.09091 0.878525 3.14518 0.747494 3.24179 0.650884C3.3384 0.554275 3.46943 0.5 3.60606 0.5ZM3.09091 3.59091V3.07885C2.89392 3.08047 2.69703 3.08838 2.50055 3.10255C2.18939 3.12727 2.01012 3.17467 1.87412 3.2437C1.58307 3.39191 1.34646 3.62852 1.19824 3.91958C1.12921 4.05558 1.08182 4.23485 1.05709 4.546C1.0303 4.86436 1.0303 5.27236 1.0303 5.85758V6.42424H14.4242V5.85758C14.4242 5.27236 14.4242 4.86436 14.3975 4.546C14.3727 4.23485 14.3253 4.05558 14.2563 3.91958C14.1081 3.62852 13.8715 3.39191 13.5804 3.2437C13.4444 3.17467 13.2652 3.12727 12.954 3.10255C12.7575 3.08838 12.5606 3.08047 12.3636 3.07885V3.59091C12.3636 3.72754 12.3094 3.85857 12.2128 3.95518C12.1161 4.05179 11.9851 4.10606 11.8485 4.10606C11.7119 4.10606 11.5808 4.05179 11.4842 3.95518C11.3876 3.85857 11.3333 3.72754 11.3333 3.59091V3.07576H4.12121V3.59091C4.12121 3.72754 4.06694 3.85857 3.97033 3.95518C3.87372 4.05179 3.74269 4.10606 3.60606 4.10606C3.46943 4.10606 3.3384 4.05179 3.24179 3.95518C3.14518 3.85857 3.09091 3.72754 3.09091 3.59091ZM14.4242 7.45455H1.0303V13.6879C1.0303 14.2731 1.0303 14.6821 1.05709 14.9995C1.08182 15.3106 1.12921 15.4899 1.19824 15.6259C1.34646 15.9169 1.58307 16.1535 1.87412 16.3018C2.01012 16.3708 2.18939 16.4182 2.50055 16.4429C2.81891 16.4697 3.22691 16.4697 3.81212 16.4697H11.6424C12.2276 16.4697 12.6367 16.4697 12.954 16.4429C13.2652 16.4182 13.4444 16.3708 13.5804 16.3018C13.8715 16.1535 14.1081 15.9169 14.2563 15.6259C14.3253 15.4899 14.3727 15.3106 14.3975 14.9995C14.4242 14.6821 14.4242 14.2731 14.4242 13.6879V7.45455Z" fill="#3B8BF4"/>
</g>
</svg>
