<svg width="17" height="16" viewBox="0 0 17 16" fill="none" xmlns="http://www.w3.org/2000/svg">
<path id="Vector" fill-rule="evenodd" clip-rule="evenodd" d="M8.45459 0C4.03906 0 0.45459 3.58447 0.45459 8C0.45459 12.4155 4.03906 16 8.45459 16C12.8701 16 16.4546 12.4155 16.4546 8C16.4546 3.58447 12.8701 0 8.45459 0ZM6.35641 12.9655C6.50096 13.34 6.66187 13.68 6.83641 13.9791C7.29824 14.7691 7.83823 15.2728 8.45459 15.2728C9.07094 15.2728 9.61096 14.7691 10.0728 13.9791C10.2446 13.6855 10.4019 13.3537 10.5437 12.9873C9.16185 13.1182 7.76628 13.1109 6.35641 12.9655ZM2.55551 12.2527C3.55005 13.6291 5.01451 14.6445 6.71365 15.0627C6.53547 14.8554 6.36547 14.6163 6.20819 14.3454C5.96182 13.9245 5.74001 13.4272 5.55001 12.8681C4.5582 12.73 3.56092 12.5255 2.55551 12.2527ZM14.3383 12.2737C13.3501 12.5546 12.3537 12.7618 11.35 12.8955C11.1619 13.4428 10.9437 13.9309 10.7009 14.3455C10.5437 14.6164 10.3737 14.8555 10.1955 15.0627C11.8855 14.6464 13.3436 13.639 14.3383 12.2737ZM11.3601 8.3636H5.54908C5.57817 9.78542 5.77635 11.1035 6.09999 12.2055C7.68545 12.3918 9.25275 12.4009 10.8018 12.2291C11.129 11.1227 11.331 9.79534 11.3601 8.3636ZM15.7183 8.3636H12.0873C12.06 9.73997 11.8782 11.0246 11.5837 12.1273C12.7046 11.9582 13.8164 11.6954 14.9173 11.3364C15.3827 10.4382 15.6656 9.43077 15.7183 8.3636ZM4.82204 8.3636H1.19103C1.24376 9.42996 1.52558 10.4354 1.99012 11.3327C3.10831 11.6736 4.21739 11.9291 5.31836 12.0991C5.02745 11.0018 4.84932 9.72808 4.82204 8.3636ZM5.32022 3.89268C4.22477 4.06449 3.11476 4.32178 1.99012 4.66722C1.52558 5.5645 1.24377 6.56995 1.19103 7.63635H4.82204C4.84932 6.26817 5.02841 4.99185 5.32022 3.89268ZM10.7984 3.75813C9.26383 3.58722 7.69939 3.59449 6.10288 3.78541C5.77744 4.88904 5.57834 6.20996 5.54925 7.63634H11.3602C11.3311 6.19816 11.1284 4.86731 10.7984 3.75813ZM11.5802 3.85995C11.8775 4.96631 12.0602 6.25541 12.0875 7.63642H15.7185C15.6658 6.56915 15.3821 5.56095 14.9176 4.66286C13.8221 4.30013 12.7093 4.03087 11.5802 3.85995ZM6.71388 0.937128C5.0166 1.35441 3.55205 2.36894 2.55854 3.74428C3.56762 3.46883 4.56581 3.26156 5.55304 3.12246C5.74304 2.56792 5.96304 2.07337 6.20849 1.65428C6.36577 1.38336 6.53568 1.1444 6.71388 0.937128ZM10.1957 0.937128C10.3739 1.1444 10.5439 1.3835 10.7012 1.65439C10.9412 2.0653 11.1584 2.54895 11.3457 3.09167C12.3548 3.22713 13.3512 3.43804 14.3339 3.72076C13.3403 2.35802 11.883 1.35255 10.1957 0.937128ZM10.5394 2.99895C10.3985 2.63804 10.2421 2.31078 10.073 2.02078C9.61117 1.23078 9.07118 0.727138 8.45482 0.727138C7.83847 0.727138 7.29845 1.23078 6.83665 2.02078C6.66392 2.31804 6.50392 2.65352 6.36119 3.0235C7.77754 2.87623 9.17023 2.86986 10.5394 2.99895Z" fill="#3B8BF4"/>
</svg>
