<svg width="18" height="16" viewBox="0 0 18 16" fill="none" xmlns="http://www.w3.org/2000/svg">
<path id="Vector" d="M2.7 5.33333C2.46131 5.33333 2.23239 5.42698 2.0636 5.59368C1.89482 5.76038 1.8 5.98647 1.8 6.22222V13.3333C1.8 13.5691 1.89482 13.7952 2.0636 13.9619C2.23239 14.1286 2.46131 14.2222 2.7 14.2222H15.3C15.5387 14.2222 15.7676 14.1286 15.9364 13.9619C16.1052 13.7952 16.2 13.5691 16.2 13.3333V6.22222C16.2 5.98647 16.1052 5.76038 15.9364 5.59368C15.7676 5.42698 15.5387 5.33333 15.3 5.33333H2.7ZM4.5 3.55556V2.66667C4.5 1.95942 4.78446 1.28115 5.29081 0.781049C5.79716 0.280952 6.48392 0 7.2 0L10.8 0C11.5161 0 12.2028 0.280952 12.7092 0.781049C13.2155 1.28115 13.5 1.95942 13.5 2.66667V3.55556H15.3C16.0161 3.55556 16.7028 3.83651 17.2092 4.3366C17.7155 4.8367 18 5.51498 18 6.22222V13.3333C18 14.0406 17.7155 14.7189 17.2092 15.219C16.7028 15.719 16.0161 16 15.3 16H2.7C1.98392 16 1.29716 15.719 0.790812 15.219C0.284463 14.7189 0 14.0406 0 13.3333L0 6.22222C0 5.51498 0.284463 4.8367 0.790812 4.3366C1.29716 3.83651 1.98392 3.55556 2.7 3.55556H4.5ZM6.3 3.55556H11.7V2.66667C11.7 2.43092 11.6052 2.20483 11.4364 2.03813C11.2676 1.87143 11.0387 1.77778 10.8 1.77778H7.2C6.96131 1.77778 6.73239 1.87143 6.5636 2.03813C6.39482 2.20483 6.3 2.43092 6.3 2.66667V3.55556ZM8.1 7.11111H9.9V12.4444H8.1V7.11111ZM6.3 8.88889H11.7V10.6667H6.3V8.88889Z" fill="#005CD4"/>
</svg>
