<svg width="25" height="25" viewBox="0 0 25 25" fill="none" xmlns="http://www.w3.org/2000/svg">
<g id="Icon / Calendar">
<path id="Vector" d="M8.92498 11.8077C8.00249 11.8077 7.11778 11.443 6.46548 10.7938C5.81318 10.1447 5.44672 9.26421 5.44672 8.34615V5.57692C5.44672 5.39331 5.52002 5.21722 5.65048 5.08739C5.78094 4.95755 5.95788 4.88462 6.14238 4.88462H6.83803C7.02253 4.88462 7.19947 4.81168 7.32993 4.68184C7.46039 4.55201 7.53368 4.37592 7.53368 4.19231C7.53368 4.0087 7.46039 3.83261 7.32993 3.70277C7.19947 3.57294 7.02253 3.5 6.83803 3.5H6.14238C5.58888 3.5 5.05806 3.71882 4.66668 4.10832C4.2753 4.49782 4.05542 5.02609 4.05542 5.57692V8.34615C4.05631 9.12828 4.24796 9.8985 4.61389 10.5907C4.97982 11.2828 5.50911 11.8763 6.15629 12.32C6.77871 12.865 7.2834 13.5302 7.63975 14.2752C7.99609 15.0202 8.19668 15.8294 8.22933 16.6538C8.22933 17.9391 8.74237 19.1718 9.65559 20.0806C10.5688 20.9894 11.8074 21.5 13.0989 21.5C14.3904 21.5 15.629 20.9894 16.5422 20.0806C17.4554 19.1718 17.9685 17.9391 17.9685 16.6538V15.8646C18.6242 15.6961 19.1957 15.2954 19.5758 14.7375C19.9559 14.1797 20.1186 13.503 20.0332 12.8344C19.9479 12.1657 19.6204 11.551 19.1123 11.1055C18.6041 10.6599 17.9501 10.4141 17.2728 10.4141C16.5955 10.4141 15.9415 10.6599 15.4333 11.1055C14.9252 11.551 14.5977 12.1657 14.5124 12.8344C14.427 13.503 14.5897 14.1797 14.9698 14.7375C15.3499 15.2954 15.9214 15.6961 16.5772 15.8646V16.6538C16.5772 17.5719 16.2107 18.4524 15.5584 19.1015C14.9061 19.7507 14.0214 20.1154 13.0989 20.1154C12.1764 20.1154 11.2917 19.7507 10.6394 19.1015C9.98709 18.4524 9.62064 17.5719 9.62064 16.6538C9.65505 15.8284 9.8578 15.0185 10.2166 14.2735C10.5753 13.5284 11.0826 12.8638 11.7076 12.32C12.3522 11.8747 12.8788 11.2806 13.2422 10.5886C13.6057 9.89648 13.7952 9.12705 13.7945 8.34615V5.57692C13.7945 5.02609 13.5747 4.49782 13.1833 4.10832C12.7919 3.71882 12.2611 3.5 11.7076 3.5H11.0119C10.8274 3.5 10.6505 3.57294 10.52 3.70277C10.3896 3.83261 10.3163 4.0087 10.3163 4.19231C10.3163 4.37592 10.3896 4.55201 10.52 4.68184C10.6505 4.81168 10.8274 4.88462 11.0119 4.88462H11.7076C11.8921 4.88462 12.069 4.95755 12.1995 5.08739C12.33 5.21722 12.4032 5.39331 12.4032 5.57692V8.34615C12.4032 8.80073 12.3133 9.25085 12.1385 9.67083C11.9637 10.0908 11.7075 10.4724 11.3845 10.7938C11.0615 11.1153 10.6781 11.3702 10.2561 11.5442C9.83405 11.7182 9.38175 11.8077 8.92498 11.8077ZM17.2728 14.5769C16.9038 14.5769 16.5499 14.431 16.289 14.1714C16.0281 13.9117 15.8815 13.5595 15.8815 13.1923C15.8815 12.8251 16.0281 12.4729 16.289 12.2132C16.5499 11.9536 16.9038 11.8077 17.2728 11.8077C17.6418 11.8077 17.9957 11.9536 18.2566 12.2132C18.5175 12.4729 18.6641 12.8251 18.6641 13.1923C18.6641 13.5595 18.5175 13.9117 18.2566 14.1714C17.9957 14.431 17.6418 14.5769 17.2728 14.5769Z" fill="#005CD4"/>
</g>
</svg>
