<svg width="25" height="25" viewBox="0 0 25 25" fill="none" xmlns="http://www.w3.org/2000/svg">
<g id="Icon / Page">
<path id="Vector" d="M21.9935 20.3079L21.6459 14.4248C21.5333 12.5013 20.0352 10.9925 18.236 10.9925H15.066C16.7257 10.1528 17.8811 8.34478 17.8811 6.24815C17.8811 3.35379 15.6853 1 12.9853 1C10.2853 1 8.08959 3.35379 8.08959 6.24815C8.08959 8.34478 9.24499 10.1501 10.9046 10.9925H7.76402C5.96484 10.9925 4.46919 12.4987 4.35414 14.4248L4.00654 20.3079C3.95024 21.2762 4.25867 22.1973 4.87799 22.9031C5.4973 23.609 6.33692 24 7.24018 24H18.7574C19.6607 24 20.5003 23.6116 21.1196 22.9031C21.7389 22.1973 22.0498 21.2762 21.9935 20.3079ZM16.4026 5.08043L16.1553 5.41107C16.1186 5.4583 16.0697 5.48979 16.0109 5.49766C15.9546 5.50291 15.8983 5.48716 15.8518 5.4478L15.0929 4.79966L15.7318 4.21187L16.3658 4.75242C16.4613 4.83639 16.4784 4.98072 16.4026 5.08043ZM16.2337 3.06515L13.683 5.40844C13.6414 5.44518 13.59 5.46617 13.5361 5.46092C13.4823 5.45568 13.4333 5.42944 13.399 5.38483L13.1249 5.04107C13.0906 4.99646 13.0735 4.94136 13.0759 4.88363C13.0808 4.8259 13.1053 4.77342 13.1469 4.73668L15.6168 2.46686C15.8396 2.64529 16.0452 2.84735 16.2337 3.06515ZM14.2974 2.98642L13.6585 3.57422L13.0196 3.02841C12.9266 2.94969 12.9119 2.80274 12.9853 2.70302L13.2326 2.37239C13.306 2.27268 13.4431 2.25693 13.5361 2.33565L14.2974 2.98642ZM8.60609 6.75197C9.00999 6.46332 9.46285 5.949 9.85206 5.15128C10.3343 4.16988 10.6892 2.92869 10.6892 2.92869C10.6892 2.92869 12.0845 3.70017 13.2375 3.8891L13.2766 3.92322L12.8238 4.34044C12.6842 4.46902 12.5986 4.65009 12.5839 4.84689C12.5692 5.0437 12.6279 5.23525 12.7479 5.38745L13.0221 5.7312C13.142 5.88078 13.3109 5.97262 13.4945 5.98836C13.5116 5.99099 13.5312 5.99099 13.5483 5.99099C13.7124 5.99099 13.8715 5.92801 13.9988 5.81255L14.716 5.15391L15.5483 5.86503C15.6731 5.97262 15.8273 6.03035 15.9864 6.03035C16.0133 6.03035 16.0403 6.02772 16.0672 6.0251C16.2532 6.00148 16.4221 5.90177 16.5396 5.74432L16.7869 5.41369C16.804 5.39007 16.8187 5.36121 16.8334 5.33497C17.1492 5.79156 17.3425 6.20616 17.3695 6.73885C17.1418 9.11626 15.2643 10.9767 12.9853 10.9767C10.7137 10.9741 8.83864 9.12151 8.60609 6.75197ZM14.902 11.5173L13 14.2516L11.098 11.5173H14.902ZM10.3318 23.4752H10.278C9.28171 23.4752 8.46901 22.6066 8.46901 21.536C8.46901 20.5362 9.17645 19.7123 10.0968 19.6099L11.1298 23.4752H10.3318ZM11.639 23.4752L10.6011 19.5968H12.9364L12.06 23.4752H11.639ZM12.5643 23.4752L13.4431 19.5968H14.1334L14.9755 23.4752H12.5643ZM15.4773 23.4752L14.6352 19.5968H15.5017L17.6094 23.4752H15.4773ZM18.7599 23.4752H18.1748L16.0672 19.5968H17.2691L20.7402 22.5673C20.2188 23.1524 19.5163 23.4752 18.7599 23.4752ZM21.0486 22.1579L17.602 19.2084V15.5242H17.1124V19.072H10.278C9.00999 19.072 7.97944 20.1767 7.97944 21.536C7.97944 22.3232 8.32704 23.0238 8.86557 23.4752H7.24263C6.474 23.4752 5.76167 23.1446 5.23782 22.5436C4.71398 21.9427 4.44961 21.1608 4.49857 20.3394L4.84616 14.4562C4.94408 12.8083 6.22676 11.5173 7.76647 11.5173H10.4885L13 15.1306L15.514 11.5173H18.236C19.7757 11.5173 21.0584 12.8083 21.1563 14.4562L21.5039 20.3394C21.5431 20.9954 21.3815 21.6252 21.0486 22.1579Z" fill="#005CD4"/>
</g>
</svg>
