<svg width="25" height="25" viewBox="0 0 25 25" fill="none" xmlns="http://www.w3.org/2000/svg">
<g id="Icon / Page">
<g id="Group">
<path id="Vector" d="M7.46344 15.3001H7.45445M12.4554 15.3001C12.4554 16.6261 11.9287 17.8979 10.991 18.8356C10.0533 19.7733 8.78153 20.3001 7.45544 20.3001C6.12936 20.3001 4.85759 19.7733 3.91991 18.8356C2.98223 17.8979 2.45544 16.6261 2.45544 15.3001C2.45544 13.974 2.98223 12.7022 3.91991 11.7645C4.85759 10.8268 6.12936 10.3001 7.45544 10.3001C8.78153 10.3001 10.0533 10.8268 10.991 11.7645C11.9287 12.7022 12.4554 13.974 12.4554 15.3001ZM18.4554 18.8001C18.4554 19.1979 18.2974 19.5794 18.0161 19.8607C17.7348 20.142 17.3533 20.3001 16.9554 20.3001C16.5576 20.3001 16.1761 20.142 15.8948 19.8607C15.6135 19.5794 15.4554 19.1979 15.4554 18.8001C15.4554 18.4022 15.6135 18.0207 15.8948 17.7394C16.1761 17.4581 16.5576 17.3001 16.9554 17.3001C17.3533 17.3001 17.7348 17.4581 18.0161 17.7394C18.2974 18.0207 18.4554 18.4022 18.4554 18.8001Z" stroke="#005CD4" stroke-width="1.5" stroke-linecap="round" stroke-linejoin="round"/>
<path id="Vector_2" d="M6.45544 10.3001L5.82744 5.27706C5.68244 4.11806 5.61044 3.53906 5.30544 3.12206C5.13401 2.88655 4.91319 2.69133 4.65844 2.55006C4.20644 2.30006 3.62244 2.30006 2.45544 2.30006M6.45544 6.30006H11.9554C14.3124 6.30006 15.4914 6.30006 16.2234 7.03206C16.9554 7.76406 16.9554 8.94306 16.9554 11.3001V17.3001" stroke="#005CD4" stroke-width="1.5" stroke-linecap="round" stroke-linejoin="round"/>
<path id="Vector_3" d="M12.4554 13.3001H16.4794C17.3644 13.3001 17.8074 13.3001 18.1924 13.4891C18.2858 13.5344 18.3748 13.5871 18.4594 13.6471C18.8154 13.8971 19.0604 14.3061 19.5514 15.1211C19.9444 15.7741 20.1414 16.1011 20.4354 16.2281C20.5054 16.2574 20.5771 16.2784 20.6504 16.2911C20.9624 16.3431 21.2794 16.1671 21.9134 15.8161L22.4554 15.5161" stroke="#005CD4" stroke-width="1.5" stroke-linecap="round" stroke-linejoin="round"/>
</g>
</g>
</svg>
