<svg width="32" height="28" viewBox="0 0 32 28" fill="none" xmlns="http://www.w3.org/2000/svg">
<path fill-rule="evenodd" clip-rule="evenodd" d="M25.1432 18.5637V24.0004C25.1432 24.9101 24.7821 25.7821 24.1387 26.4244C23.8205 26.743 23.4426 26.9957 23.0267 27.1681C22.6107 27.3405 22.1649 27.4291 21.7146 27.429H3.42862C2.97837 27.4291 2.53251 27.3405 2.11656 27.1681C1.70061 26.9957 1.32274 26.743 1.00459 26.4244C0.685985 26.1063 0.43326 25.7284 0.260879 25.3124C0.0884987 24.8965 -0.000152649 24.4506 1.97309e-07 24.0004V3.42862C1.97309e-07 2.5189 0.361149 1.64688 1.00459 1.00459C1.32274 0.685985 1.70061 0.43326 2.11656 0.260879C2.53251 0.0884987 2.97837 -0.000152649 3.42862 1.97309e-07H21.7146C22.6243 1.97309e-07 23.4964 0.361149 24.1387 1.00459C24.7821 1.64688 25.1432 2.5189 25.1432 3.42862V8.86528L26.4827 7.52697C26.9113 7.09846 27.4926 6.85774 28.0987 6.85774C28.7048 6.85774 29.2861 7.09846 29.7147 7.52697L31.3308 9.143C31.7593 9.57164 32 10.1529 32 10.759C32 11.3651 31.7593 11.9464 31.3308 12.375L25.1432 18.5637ZM22.8575 11.151V8.00012H2.28575V24.0004C2.2853 24.1506 2.31455 24.2994 2.37182 24.4383C2.4291 24.5771 2.51326 24.7033 2.61948 24.8095C2.7257 24.9157 2.85187 24.9999 2.99073 25.0572C3.12959 25.1144 3.27841 25.1437 3.42862 25.1432H21.7146C21.8648 25.1437 22.0136 25.1144 22.1525 25.0572C22.2914 24.9999 22.4175 24.9157 22.5238 24.8095C22.63 24.7033 22.7141 24.5771 22.7714 24.4383C22.8287 24.2994 22.8579 24.1506 22.8575 24.0004V20.8495L21.9592 21.7478C21.8387 21.8677 21.6931 21.9594 21.5329 22.0163L17.654 23.3924C17.3487 23.5006 17.019 23.5201 16.7031 23.4487C16.3872 23.3773 16.098 23.2178 15.869 22.9888C15.6399 22.7598 15.4805 22.4705 15.409 22.1546C15.3376 21.8387 15.3572 21.509 15.4654 21.2038L16.8414 17.3248C16.8985 17.1648 16.99 17.0185 17.11 16.8985L22.8575 11.151ZM22.8575 5.71437V3.42862C22.8579 3.27841 22.8287 3.12959 22.7714 2.99073C22.7141 2.85187 22.63 2.7257 22.5238 2.61948C22.4175 2.51326 22.2914 2.4291 22.1525 2.37182C22.0136 2.31455 21.8648 2.2853 21.7146 2.28575H3.42862C3.27841 2.2853 3.12959 2.31455 2.99073 2.37182C2.85187 2.4291 2.7257 2.51326 2.61948 2.61948C2.51326 2.7257 2.4291 2.85187 2.37182 2.99073C2.31455 3.12959 2.2853 3.27841 2.28575 3.42862V5.71437H22.8575ZM18.0208 20.8369L20.526 19.9489L29.7147 10.759L28.0987 9.143L18.9089 18.3317L18.0208 20.8369ZM5.71437 12.5716C5.41126 12.5716 5.12057 12.4512 4.90624 12.2369C4.69191 12.0225 4.5715 11.7319 4.5715 11.4287C4.5715 11.1256 4.69191 10.8349 4.90624 10.6206C5.12057 10.4063 5.41126 10.2859 5.71437 10.2859H19.4289C19.732 10.2859 20.0227 10.4063 20.237 10.6206C20.4513 10.8349 20.5717 11.1256 20.5717 11.4287C20.5717 11.7319 20.4513 12.0225 20.237 12.2369C20.0227 12.4512 19.732 12.5716 19.4289 12.5716H5.71437ZM5.71437 17.1431C5.41126 17.1431 5.12057 17.0227 4.90624 16.8084C4.69191 16.594 4.5715 16.3034 4.5715 16.0002C4.5715 15.6971 4.69191 15.4064 4.90624 15.1921C5.12057 14.9778 5.41126 14.8574 5.71437 14.8574H14.8574C15.1605 14.8574 15.4512 14.9778 15.6655 15.1921C15.8798 15.4064 16.0002 15.6971 16.0002 16.0002C16.0002 16.3034 15.8798 16.594 15.6655 16.8084C15.4512 17.0227 15.1605 17.1431 14.8574 17.1431H5.71437ZM5.71437 21.7146C5.41126 21.7146 5.12057 21.5942 4.90624 21.3799C4.69191 21.1655 4.5715 20.8749 4.5715 20.5717C4.5715 20.2686 4.69191 19.9779 4.90624 19.7636C5.12057 19.5493 5.41126 19.4289 5.71437 19.4289H12.5716C12.8747 19.4289 13.1654 19.5493 13.3798 19.7636C13.5941 19.9779 13.7145 20.2686 13.7145 20.5717C13.7145 20.8749 13.5941 21.1655 13.3798 21.3799C13.1654 21.5942 12.8747 21.7146 12.5716 21.7146H5.71437Z" fill="black"/>
</svg>
