<svg width="28" height="26" viewBox="0 0 28 26" fill="none" xmlns="http://www.w3.org/2000/svg">
<path d="M25 6H23V3C23 2.20435 22.6839 1.44129 22.1213 0.87868C21.5587 0.316071 20.7956 0 20 0H3C2.20435 0 1.44129 0.316071 0.87868 0.87868C0.316071 1.44129 0 2.20435 0 3V23C0 23.7956 0.316071 24.5587 0.87868 25.1213C1.44129 25.6839 2.20435 26 3 26H24.5C25.4283 26 26.3185 25.6313 26.9749 24.9749C27.6313 24.3185 28 23.4283 28 22.5V9C28 8.20435 27.6839 7.44129 27.1213 6.87868C26.5587 6.31607 25.7956 6 25 6ZM2 23V3C2 2.73478 2.10536 2.48043 2.29289 2.29289C2.48043 2.10536 2.73478 2 3 2H20C20.2652 2 20.5196 2.10536 20.7071 2.29289C20.8946 2.48043 21 2.73478 21 3V22.5C21.0021 23.02 21.1218 23.5328 21.35 24H3C2.73478 24 2.48043 23.8946 2.29289 23.7071C2.10536 23.5196 2 23.2652 2 23ZM26 22.5C26 22.8978 25.842 23.2794 25.5607 23.5607C25.2794 23.842 24.8978 24 24.5 24C24.1022 24 23.7206 23.842 23.4393 23.5607C23.158 23.2794 23 22.8978 23 22.5V8H25C25.2652 8 25.5196 8.10536 25.7071 8.29289C25.8946 8.48043 26 8.73478 26 9V22.5Z" fill="black"/>
<path d="M18 7H8C7.73478 7 7.48043 7.10536 7.29289 7.29289C7.10536 7.48043 7 7.73478 7 8C7 8.26522 7.10536 8.51957 7.29289 8.70711C7.48043 8.89464 7.73478 9 8 9H18C18.2652 9 18.5196 8.89464 18.7071 8.70711C18.8946 8.51957 19 8.26522 19 8C19 7.73478 18.8946 7.48043 18.7071 7.29289C18.5196 7.10536 18.2652 7 18 7ZM18 12H5C4.73478 12 4.48043 12.1054 4.29289 12.2929C4.10536 12.4804 4 12.7348 4 13C4 13.2652 4.10536 13.5196 4.29289 13.7071C4.48043 13.8946 4.73478 14 5 14H18C18.2652 14 18.5196 13.8946 18.7071 13.7071C18.8946 13.5196 19 13.2652 19 13C19 12.7348 18.8946 12.4804 18.7071 12.2929C18.5196 12.1054 18.2652 12 18 12ZM18 17H5C4.73478 17 4.48043 17.1054 4.29289 17.2929C4.10536 17.4804 4 17.7348 4 18C4 18.2652 4.10536 18.5196 4.29289 18.7071C4.48043 18.8946 4.73478 19 5 19H18C18.2652 19 18.5196 18.8946 18.7071 18.7071C18.8946 18.5196 19 18.2652 19 18C19 17.7348 18.8946 17.4804 18.7071 17.2929C18.5196 17.1054 18.2652 17 18 17Z" fill="black"/>
</svg>
